<svg width="81" height="80" viewBox="0 0 81 80" fill="none" xmlns="http://www.w3.org/2000/svg">
<g clip-path="url(#clip0_43_1239)">
<path d="M66.9753 78.7133H13.0664C13.0664 78.7133 18.7862 68.845 27.4103 70.0806C36.0342 71.3163 35.172 75.0449 41.9305 73.8281C46.7569 72.9592 45.6017 71.3944 51.2745 69.3727C59.2492 66.5306 66.9753 78.7133 66.9753 78.7133Z" fill="#F4F1E3"/>
<path d="M73.4529 18.9511C73.4023 18.9511 73.3525 18.9277 73.3201 18.8838C73.2667 18.8106 73.2826 18.7077 73.3559 18.6544C73.4636 18.5672 74.154 17.8519 74.4772 17.4722C74.0968 17.5249 73.3936 17.6585 72.7537 17.7952C72.6643 17.8116 72.5776 17.7574 72.5589 17.6688C72.5398 17.5799 72.5964 17.4927 72.6851 17.4738C74.8748 17.0061 74.902 17.0938 74.9509 17.2525C75.0348 17.5225 73.5654 18.9081 73.5497 18.9194C73.5204 18.941 73.4864 18.9511 73.4529 18.9511Z" fill="#241726"/>
<path d="M70.9199 18.9931C70.9199 18.9931 71.0789 16.4337 72.4143 16.899C74.2639 17.5436 75.1146 22.312 71.6225 23.347C68.1307 24.382 66.8721 21.51 66.8721 21.51L68.7478 21.0797C68.7478 21.0797 67.4052 19.8661 67.5322 18.8723C67.6593 17.8786 68.7083 18.7544 68.7083 18.7544C68.7083 18.7544 67.483 16.4626 68.5016 16.3953C69.52 16.3281 70.9199 18.9931 70.9199 18.9931Z" fill="#B1739A"/>
<path d="M72.4952 18.6936C72.1382 18.6936 71.7913 18.1708 71.6916 18.0076C71.6442 17.9299 71.6688 17.829 71.7463 17.7818C71.8233 17.7343 71.9246 17.7586 71.9719 17.8363C72.1092 18.0608 72.3246 18.3046 72.4502 18.3555C72.4518 18.219 72.3583 17.8821 72.2311 17.5822C72.1958 17.4988 72.2349 17.4024 72.3182 17.3671C72.4018 17.3318 72.498 17.3704 72.5335 17.454C72.6672 17.7693 72.87 18.3333 72.7255 18.5688C72.6802 18.6429 72.6071 18.6868 72.5196 18.6929C72.5114 18.6936 72.5033 18.6936 72.4952 18.6936Z" fill="#241726"/>
<path d="M69.3411 21.0711C69.3042 21.0711 69.267 21.0586 69.2364 21.0333C69.1361 20.9498 68.2598 20.2026 68.3231 19.5887C68.3442 19.3858 68.4617 19.3103 68.5298 19.2834C68.7307 19.2042 69.0206 19.3434 69.2647 19.5067C69.1526 18.8778 69.2109 18.5223 69.4397 18.4483C69.537 18.4162 69.8332 18.3212 70.9198 20.0134C70.9687 20.0898 70.9465 20.1914 70.8703 20.2404C70.7937 20.2895 70.6923 20.267 70.6434 20.1911C70.2493 19.5772 69.7312 18.895 69.535 18.7789C69.5084 18.9004 69.5614 19.3953 69.6795 19.8703C69.6967 19.9395 69.667 20.0123 69.6059 20.0497C69.5448 20.0872 69.4668 20.0811 69.4125 20.0339C69.1189 19.7789 68.7557 19.5618 68.6551 19.5878C68.6557 19.5908 68.6523 19.6022 68.6501 19.6228C68.6156 19.9547 69.1203 20.5092 69.4465 20.7806C69.5161 20.8386 69.5257 20.9423 69.4676 21.0118C69.435 21.0509 69.3882 21.0711 69.3411 21.0711Z" fill="#241726"/>
<path d="M70.8771 22.7548C70.3759 22.7548 70.0067 22.6566 69.9772 22.6487C69.8898 22.6246 69.8384 22.5345 69.8623 22.447C69.8862 22.3598 69.9764 22.309 70.0639 22.3318C70.0767 22.3357 71.3529 22.6718 72.3321 22.0348C72.9215 21.6512 73.2918 20.9896 73.4329 20.0684C73.4464 19.9785 73.5282 19.9166 73.6201 19.9307C73.7098 19.9445 73.7714 20.0282 73.7576 20.1177C73.6017 21.137 73.1817 21.8749 72.509 22.3115C71.9668 22.6634 71.3606 22.7548 70.8771 22.7548Z" fill="#241726"/>
<path d="M2.16602 40.4582C2.13321 40.4582 2.09993 40.4482 2.07118 40.4271C2.0554 40.4156 0.586491 39.0288 0.669928 38.7596C0.721178 38.5967 0.746491 38.5146 2.93587 38.9812C3.02462 39.0001 3.08102 39.0873 3.06212 39.1762C3.04321 39.2648 2.95587 39.3199 2.86727 39.3026C2.22743 39.166 1.52446 39.0323 1.14383 38.9796C1.46712 39.3593 2.1579 40.0753 2.26758 40.1637C2.3368 40.2198 2.35071 40.3224 2.29633 40.3934C2.26383 40.4357 2.21524 40.4582 2.16602 40.4582Z" fill="#241726"/>
<path d="M4.70084 40.5009C4.70084 40.5009 4.54178 37.9415 3.20647 38.4069C1.35678 39.0514 0.506154 43.8198 3.99819 44.8548C7.49006 45.8898 8.74865 43.0178 8.74865 43.0178L6.87303 42.5875C6.87303 42.5875 8.21569 41.3739 8.08865 40.3801C7.96162 39.3865 6.91256 40.2622 6.91256 40.2622C6.91256 40.2622 8.13787 37.9704 7.11928 37.9031C6.10069 37.8359 4.70084 40.5009 4.70084 40.5009Z" fill="#B1739A"/>
<path d="M3.12531 40.2018C3.11735 40.2018 3.10906 40.2018 3.1011 40.2011C3.0136 40.1951 2.94047 40.1511 2.895 40.0771C2.75047 39.8416 2.95344 39.2775 3.08703 38.9619C3.12266 38.8782 3.21906 38.8394 3.30235 38.875C3.38578 38.9104 3.42469 39.0066 3.38938 39.0902C3.26219 39.3904 3.16875 39.7272 3.17031 39.8638C3.29625 39.8129 3.51156 39.5691 3.6486 39.3443C3.6961 39.2666 3.79735 39.2426 3.87422 39.2897C3.95172 39.3369 3.97625 39.4379 3.92891 39.5155C3.82953 39.6786 3.48219 40.2018 3.12531 40.2018Z" fill="#241726"/>
<path d="M6.28002 42.5789C6.23283 42.5789 6.18611 42.5588 6.15361 42.5195C6.09564 42.45 6.10517 42.3463 6.17486 42.2883C6.50111 42.0169 7.00548 41.4625 6.97111 41.1305C6.96798 41.1 6.96142 41.0897 6.96142 41.0897C6.87595 41.065 6.50673 41.2831 6.20861 41.5416C6.15423 41.5885 6.0758 41.5949 6.01517 41.5574C5.95408 41.5202 5.92439 41.4474 5.94158 41.3777C6.0533 40.928 6.10689 40.4608 6.07033 40.2969C5.86345 40.4377 5.36173 41.101 4.97767 41.6991C4.92845 41.775 4.82689 41.7975 4.7508 41.7485C4.67455 41.6994 4.65236 41.5977 4.70127 41.5214C5.7883 39.828 6.08361 39.9239 6.18142 39.9563C6.41017 40.0303 6.46861 40.3856 6.35642 41.0144C6.6008 40.8514 6.89111 40.7116 7.09142 40.7911C7.15939 40.818 7.27673 40.8935 7.29798 41.0964C7.36126 41.7103 6.48517 42.4575 6.38486 42.541C6.35423 42.5664 6.31689 42.5789 6.28002 42.5789Z" fill="#241726"/>
<path d="M4.74356 44.2626C4.26028 44.2626 3.65403 44.1712 3.112 43.8193C2.43934 43.3827 2.01919 42.6448 1.86325 41.6256C1.8495 41.536 1.91106 41.4524 2.00075 41.4385C2.09122 41.4245 2.17419 41.4863 2.18794 41.5762C2.32903 42.4976 2.69934 43.1593 3.28887 43.5426C4.26778 44.1795 5.5445 43.843 5.55715 43.8396C5.64481 43.8165 5.73497 43.8676 5.75872 43.9548C5.78262 44.0423 5.73137 44.1324 5.64387 44.1565C5.61434 44.1645 5.24497 44.2626 4.74356 44.2626Z" fill="#241726"/>
<path d="M10.1748 17.7531C10.1748 17.7531 11.185 14.7565 11.6183 15.066C12.0517 15.3754 11.9428 15.8957 11.9428 15.8957C11.9428 15.8957 13.203 14.2676 13.8861 14.6657C14.5691 15.0639 13.9019 15.872 13.9019 15.872C13.9019 15.872 16.0167 14.3715 16.3503 15.1576C16.6839 15.9437 14.777 17.5496 14.777 17.5496C14.777 17.5496 15.8775 16.8685 16.1059 17.7912C16.3344 18.7139 14.4869 18.9365 14.372 18.9359C14.2572 18.9354 14.9756 18.9034 14.7602 19.5145C14.5447 20.1254 8.73141 20.4403 10.1748 17.7531Z" fill="#51AEA5"/>
<path d="M7.50703 21.0492C7.50703 21.0492 4.67594 22.4579 4.5875 21.9327C4.49907 21.4076 4.94344 21.116 4.94344 21.116C4.94344 21.116 2.90141 21.3792 2.69875 20.6149C2.4961 19.8507 3.53922 19.7496 3.53922 19.7496C3.53922 19.7496 0.982191 19.319 1.30094 18.5267C1.61969 17.7345 4.10407 17.9437 4.10407 17.9437C4.10407 17.9437 2.84391 17.649 3.3336 16.8343C3.82328 16.0196 5.28875 17.1665 5.36969 17.2479C5.45063 17.3293 4.91922 16.8446 5.50328 16.5642C6.0875 16.2837 10.4264 20.1656 7.50703 21.0492Z" fill="#51AEA5"/>
<path d="M10.8946 20.5759C10.8946 20.5759 13.5313 22.3214 13.121 22.6609C12.7107 23.0003 12.2359 22.7616 12.2359 22.7616C12.2359 22.7616 13.4859 24.3975 12.9259 24.9555C12.3657 25.5134 11.756 24.6611 11.756 24.6611C11.756 24.6611 12.6632 27.0902 11.8179 27.2109C10.9726 27.3316 9.90992 25.0763 9.90992 25.0763C9.90992 25.0763 10.2857 26.3147 9.33524 26.2986C8.38477 26.2825 8.64399 24.4398 8.67399 24.3289C8.70399 24.2181 8.55039 24.9206 8.01508 24.5555C7.47977 24.1903 8.66805 18.4911 10.8946 20.5759Z" fill="#51AEA5"/>
<path d="M11.608 18.7081C11.3012 18.6439 10.9967 18.6592 10.7142 18.7378C10.8387 17.7669 10.1987 16.848 9.22421 16.6441C8.19999 16.4297 7.19578 17.0864 6.98156 18.1106C6.85281 18.7263 7.04015 19.3335 7.4314 19.7674C6.7489 19.938 6.18796 20.4814 6.03421 21.2163C5.81984 22.2405 6.47656 23.2447 7.50078 23.4589C8.52515 23.6733 9.52921 23.0166 9.74343 21.9924C9.75796 21.9231 9.76765 21.8541 9.77437 21.7853C10.0377 22.097 10.4016 22.3274 10.8317 22.4175C11.8561 22.6319 12.8601 21.9752 13.0744 20.951C13.2889 19.9266 12.6323 18.9225 11.608 18.7081ZM9.34203 20.3236C9.33953 20.343 9.33624 20.3624 9.33453 20.3817C9.32124 20.3661 9.30749 20.3508 9.2939 20.3356C9.30984 20.3316 9.32609 20.3281 9.34203 20.3236Z" fill="#D45A41"/>
<path d="M6.90875 19.8187C6.87687 19.8187 6.84453 19.8095 6.81625 19.7901C5.67828 19.0128 3.54437 19.1086 3.52281 19.1082C3.42953 19.1182 3.355 19.0428 3.35078 18.9525C3.34641 18.862 3.41625 18.785 3.50687 18.7806C3.59859 18.7757 5.77187 18.6792 7.00172 19.5189C7.07656 19.5701 7.09578 19.6722 7.04469 19.7473C7.01266 19.7937 6.96109 19.8187 6.90875 19.8187Z" fill="#241726"/>
<path d="M11.6078 18.8721C11.5308 18.8721 11.4621 18.8175 11.4469 18.7392C11.4296 18.65 11.4877 18.5638 11.5766 18.5464C12.2755 18.4105 13.4857 16.8803 13.8932 16.3021C13.9453 16.2283 14.0474 16.21 14.1221 16.2622C14.1961 16.3144 14.2139 16.4171 14.1618 16.4911C14.0041 16.715 12.5941 18.683 11.6396 18.8689C11.6288 18.8711 11.6183 18.8721 11.6078 18.8721Z" fill="#241726"/>
<path d="M10.6697 25.2853C10.5802 25.2853 10.5069 25.2134 10.5055 25.1236C10.4959 24.5517 10.358 23.0008 9.84 22.6947C9.76187 22.6484 9.73609 22.5478 9.78203 22.4698C9.82828 22.3915 9.92875 22.3662 10.007 22.4117C10.7752 22.8656 10.8302 24.889 10.8339 25.1183C10.8353 25.2087 10.763 25.2834 10.6723 25.285C10.6714 25.2853 10.6705 25.2853 10.6697 25.2853Z" fill="#241726"/>
<path d="M10.7476 18.7329C10.6626 18.7015 10.5683 18.7448 10.5365 18.8301C10.5327 18.8401 10.1473 19.8551 9.33366 20.0135C9.30538 20.0191 9.28194 20.0332 9.26147 20.0505C9.22038 20.022 9.18022 19.9927 9.13429 19.9668C8.49335 19.6043 7.95038 19.4838 7.52022 19.6109C7.14772 19.7205 7.00554 19.9743 6.99038 20.0027C6.94866 20.0823 6.97913 20.1794 7.05804 20.2221C7.13663 20.2654 7.23601 20.2355 7.28022 20.1573C7.28413 20.1505 7.37585 19.9918 7.62382 19.9224C7.85819 19.8582 8.28194 19.8615 8.97257 20.2527C9.84601 20.7466 9.59444 21.9066 9.58335 21.9557C9.56335 22.0438 9.61851 22.1321 9.70679 22.1523C9.71913 22.1548 9.73147 22.1565 9.74351 22.1565C9.81835 22.1565 9.88585 22.1052 9.90335 22.0291C9.91476 21.9795 10.1321 20.9785 9.53976 20.2985C10.434 20.0285 10.8277 18.9898 10.8448 18.9434C10.876 18.8585 10.8326 18.7643 10.7476 18.7329Z" fill="#241726"/>
<path d="M10.0722 18.256C10.0032 18.256 9.93881 18.2121 9.91615 18.1427C9.69787 17.4769 8.93053 17.533 8.92334 17.5327C8.83131 17.5413 8.75365 17.473 8.74615 17.3825C8.73881 17.2921 8.806 17.2128 8.89647 17.2055C9.25287 17.1728 9.98975 17.313 10.2283 18.0407C10.2566 18.1266 10.2096 18.2192 10.1235 18.2478C10.1065 18.2533 10.0891 18.256 10.0722 18.256Z" fill="#FBFCFF"/>
<path d="M12.5518 20.6822C12.4799 20.6822 12.4138 20.6344 12.3937 20.5619C12.2572 20.0693 11.5399 19.7679 11.5327 19.7646C11.449 19.7302 11.4091 19.6341 11.4435 19.5504C11.478 19.4666 11.5738 19.4269 11.6576 19.4608C11.693 19.4755 12.5305 19.8258 12.7102 20.474C12.7344 20.5615 12.6832 20.6519 12.5957 20.676C12.5812 20.6802 12.5663 20.6822 12.5518 20.6822Z" fill="#FBFCFF"/>
<path d="M9.09213 21.644C9.00228 21.644 8.929 21.5718 8.92791 21.4816C8.92666 21.3726 8.88744 21.2832 8.80853 21.2083C8.55713 20.9704 7.97541 20.938 7.77135 20.9488C7.68432 20.9521 7.60432 20.8824 7.60025 20.7916C7.59635 20.7012 7.66666 20.6246 7.75713 20.6204C7.79307 20.6204 8.62932 20.5868 9.034 20.9693C9.17916 21.1066 9.25385 21.2776 9.2565 21.4776C9.2576 21.568 9.18494 21.6424 9.09432 21.6437C9.09353 21.644 9.09275 21.644 9.09213 21.644Z" fill="#FBFCFF"/>
<path d="M71.0679 56.2255C71.0679 56.2255 68.3129 54.6733 68.6977 54.3053C69.0826 53.9374 69.5734 54.1416 69.5734 54.1416C69.5734 54.1416 68.2093 52.5994 68.7281 52.0027C69.2466 51.4061 69.916 52.2125 69.916 52.2125C69.916 52.2125 68.8371 49.8547 69.6716 49.6738C70.5062 49.4928 71.7276 51.6663 71.7276 51.6663C71.7276 51.6663 71.2641 50.458 72.2132 50.406C73.1623 50.3539 73.0359 52.2105 73.0138 52.3232C72.9918 52.4358 73.0948 51.7241 73.6548 52.0499C74.2149 52.3758 73.4381 58.1455 71.0679 56.2255Z" fill="#51AEA5"/>
<path d="M73.8072 59.4625C73.8072 59.4625 74.6622 62.5069 74.1299 62.4956C73.5975 62.4844 73.3941 61.9933 73.3941 61.9933C73.3941 61.9933 73.2711 64.0484 72.4825 64.1049C71.6939 64.1611 71.7894 63.1175 71.7894 63.1175C71.7894 63.1175 70.8886 65.5491 70.1699 65.0878C69.4511 64.6267 70.1208 62.2252 70.1208 62.2252C70.1208 62.2252 69.5959 63.4081 68.887 62.7749C68.1781 62.1416 69.5786 60.9161 69.6738 60.8519C69.7689 60.7875 69.1934 61.2191 69.027 60.5928C68.8605 59.9666 73.4845 56.4292 73.8072 59.4625Z" fill="#51AEA5"/>
<path d="M73.9754 56.0462C73.9754 56.0462 76.1827 53.7819 76.4396 54.2484C76.6965 54.7148 76.373 55.1368 76.373 55.1368C76.373 55.1368 78.2138 54.2144 78.6572 54.8688C79.1007 55.5234 78.1494 55.9632 78.1494 55.9632C78.1494 55.9632 80.7052 55.5257 80.6658 56.3788C80.6265 57.2319 78.2122 57.8543 78.2122 57.8543C78.2122 57.8543 79.499 57.7165 79.3057 58.6471C79.1122 59.5777 77.3505 58.979 77.2472 58.9288C77.144 58.8787 77.8055 59.1609 77.3468 59.6184C76.8882 60.076 71.5111 57.844 73.9754 56.0462Z" fill="#51AEA5"/>
<path d="M75.1517 57.4414C75.0864 57.4142 75.0204 57.3917 74.954 57.3724C75.3093 57.1721 75.6037 56.8575 75.7726 56.4516C76.1745 55.4853 75.717 54.3763 74.7509 53.9744C73.7846 53.5725 72.6756 54.03 72.2737 54.9961C72.1534 55.2855 72.1115 55.5875 72.1359 55.8797C71.2053 55.576 70.1829 56.033 69.8006 56.9524C69.3987 57.9186 69.8562 59.0277 70.8223 59.4296C71.4031 59.6711 72.0345 59.6003 72.5339 59.2971C72.574 59.9994 73.0031 60.6521 73.6962 60.9403C74.6624 61.3422 75.7715 60.8847 76.1734 59.9185C76.5754 58.9524 76.1179 57.8433 75.1517 57.4414ZM73.4373 57.5242C73.4559 57.5303 73.4743 57.5371 73.4929 57.5425C73.4751 57.5525 73.4574 57.5631 73.4399 57.5739C73.4392 57.5574 73.4387 57.5407 73.4373 57.5242Z" fill="#D45A41"/>
<path d="M70.8304 63.0995C70.8229 63.0995 70.8151 63.0989 70.8074 63.098C70.7176 63.0855 70.6551 63.0023 70.6676 62.9127C70.6803 62.8216 70.9909 60.6686 72.046 59.6172C72.1104 59.5533 72.2143 59.5533 72.2782 59.6178C72.3424 59.6819 72.3421 59.7859 72.2779 59.85C71.3014 60.8228 70.9959 62.937 70.9928 62.9581C70.9814 63.0402 70.911 63.0995 70.8304 63.0995Z" fill="#241726"/>
<path d="M72.2736 55.1604C72.1831 55.1604 72.1097 55.0873 72.1094 54.9968C72.1063 54.2845 70.8292 52.8098 70.3372 52.3018C70.2742 52.2366 70.2758 52.1327 70.3411 52.0696C70.4066 52.0068 70.5105 52.008 70.5733 52.0735C70.7636 52.2701 72.4336 54.0229 72.4378 54.9957C72.4381 55.0865 72.365 55.1602 72.2742 55.1605L72.2736 55.1604Z" fill="#241726"/>
<path d="M75.7364 57.5335C75.6979 57.5335 75.6591 57.52 75.628 57.4924C75.5599 57.4327 75.5533 57.3288 75.6132 57.2608C76.2027 56.5911 78.2011 56.9153 78.4268 56.9546C78.5161 56.9699 78.5758 57.0549 78.5605 57.1441C78.545 57.2336 78.4607 57.2961 78.3707 57.2778C77.8074 57.1806 76.2571 57.0261 75.8599 57.4777C75.8272 57.5146 75.7821 57.5335 75.7364 57.5335Z" fill="#241726"/>
<path d="M75.2179 57.2913C75.1712 57.2707 74.2282 56.87 73.4498 57.3252C73.352 56.3964 72.4048 55.8157 72.3625 55.79C72.2845 55.7438 72.184 55.7678 72.1373 55.8461C72.0906 55.9238 72.1156 56.0247 72.1932 56.0716C72.2026 56.0771 73.1278 56.6453 73.1314 57.4741C73.1315 57.503 73.1411 57.5286 73.1542 57.5522C73.1184 57.5874 73.0821 57.6213 73.0479 57.6617C72.5717 58.2239 72.3526 58.7349 72.3965 59.1807C72.4346 59.5671 72.6575 59.7541 72.6826 59.7742C72.7126 59.798 72.7482 59.8096 72.7836 59.8096C72.8312 59.8096 72.8784 59.7886 72.9109 59.7489C72.9678 59.6794 72.9575 59.5764 72.8887 59.5186C72.8828 59.5135 72.7439 59.3936 72.7225 59.1369C72.7021 58.895 72.7856 58.4794 73.2984 57.8739C73.947 57.1077 75.04 57.5717 75.0859 57.5921C75.17 57.6286 75.266 57.5902 75.302 57.5074C75.3385 57.4244 75.3009 57.3278 75.2179 57.2913Z" fill="#241726"/>
<path d="M70.4549 57.5606C70.4491 57.5606 70.4432 57.5603 70.4374 57.5597C70.3471 57.55 70.2819 57.4692 70.2915 57.3791C70.3293 57.0234 70.6015 56.3252 71.3604 56.2267C71.45 56.2139 71.5327 56.2784 71.5443 56.3684C71.556 56.4586 71.4925 56.5406 71.4027 56.5525C70.708 56.6427 70.6186 57.4059 70.6179 57.4136C70.609 57.4981 70.5377 57.5606 70.4549 57.5606Z" fill="#FBFCFF"/>
<path d="M73.1602 55.3416C73.1294 55.3416 73.0983 55.333 73.0705 55.3147C72.9947 55.2654 72.9733 55.1637 73.0227 55.088C73.0436 55.0557 73.5442 54.2983 74.2147 54.2432C74.3061 54.2362 74.3844 54.3029 74.3919 54.3933C74.3992 54.4838 74.332 54.563 74.2416 54.5704C73.732 54.6124 73.302 55.2608 73.2977 55.2672C73.2664 55.3154 73.2138 55.3416 73.1602 55.3416Z" fill="#FBFCFF"/>
<path d="M73.596 59.3245C73.5882 59.3245 73.5801 59.3238 73.5721 59.3226C73.4825 59.3098 73.4203 59.2263 73.4334 59.1365C73.4384 59.1015 73.5634 58.273 74.0146 57.9473C74.1764 57.8309 74.3582 57.7888 74.5551 57.8241C74.6445 57.8399 74.7039 57.9252 74.6881 58.0143C74.6721 58.1038 74.5884 58.1618 74.4978 58.1474C74.3896 58.1282 74.2951 58.1499 74.2073 58.2135C73.9262 58.4159 73.7879 58.9826 73.7582 59.184C73.7464 59.2657 73.6762 59.3245 73.596 59.3245Z" fill="#FBFCFF"/>
<path d="M27.5174 72.1554C27.4721 72.1554 27.427 72.1368 27.3946 72.1003C27.3743 72.0775 26.898 71.5621 26.151 71.9162C26.0693 71.9543 25.9713 71.9201 25.9324 71.8379C25.8935 71.7562 25.9284 71.6581 26.0105 71.6192C26.7916 71.2496 27.4184 71.6298 27.6409 71.8828C27.7009 71.951 27.6941 72.0546 27.626 72.1146C27.5945 72.142 27.5559 72.1554 27.5174 72.1554Z" fill="#241726"/>
<path d="M26.222 73.1232C26.1767 73.1232 26.1315 73.1046 26.0992 73.068C26.0789 73.0449 25.6028 72.5293 24.8556 72.884C24.774 72.9221 24.6756 72.8879 24.637 72.8057C24.5981 72.724 24.6329 72.6259 24.7151 72.5869C25.4961 72.2174 26.1229 72.5976 26.3453 72.8505C26.4053 72.9188 26.3986 73.0224 26.3304 73.0824C26.2992 73.1098 26.2604 73.1232 26.222 73.1232Z" fill="#241726"/>
<path d="M24.0448 72.9377C23.9995 72.9377 23.9543 72.9191 23.922 72.8825C23.9018 72.8597 23.4268 72.3433 22.6784 72.6982C22.5967 72.7366 22.4987 72.7017 22.4596 72.6199C22.4209 72.5382 22.4559 72.44 22.5379 72.4011C23.3187 72.031 23.9459 72.4121 24.1682 72.665C24.2282 72.7333 24.2215 72.8369 24.1534 72.8969C24.122 72.9242 24.0832 72.9377 24.0448 72.9377Z" fill="#241726"/>
<path d="M21.8519 72.0547C21.8038 72.0547 21.7561 72.0339 21.7238 71.9934C21.667 71.9228 21.678 71.8192 21.7488 71.7625C22.4314 71.2134 23.1183 71.4414 23.3858 71.6391C23.4589 71.693 23.4745 71.7956 23.4206 71.8688C23.3672 71.9413 23.2649 71.9574 23.1916 71.9041C23.1666 71.8858 22.6052 71.4949 21.9547 72.0186C21.9244 72.0428 21.888 72.0547 21.8519 72.0547Z" fill="#241726"/>
<path d="M24.2235 71.8744C24.1729 71.8744 24.1229 71.8509 24.0907 71.807C24.0372 71.7339 24.0532 71.6309 24.1265 71.5777C24.8315 71.0619 25.5088 71.3217 25.7686 71.5311C25.8393 71.5881 25.8502 71.6914 25.7933 71.762C25.7369 71.8325 25.6336 71.8434 25.5632 71.7873C25.5397 71.7691 24.993 71.3511 24.3201 71.8425C24.291 71.8642 24.2571 71.8744 24.2235 71.8744Z" fill="#241726"/>
<path d="M21.3646 73.8065C21.314 73.8065 21.2641 73.7831 21.2318 73.7392C21.1784 73.666 21.1943 73.5631 21.2676 73.5098C21.9727 72.994 22.6499 73.2538 22.9098 73.4632C22.9804 73.5203 22.9913 73.6235 22.9344 73.6942C22.878 73.7648 22.7751 73.7756 22.7043 73.7195C22.6812 73.7018 22.1341 73.2829 21.4612 73.7746C21.4321 73.7964 21.3982 73.8065 21.3646 73.8065Z" fill="#241726"/>
<path d="M19.9714 73.0504C19.9294 73.0504 19.8872 73.0343 19.8551 73.0023C19.7911 72.9381 19.7911 72.8338 19.8554 72.7701C20.4792 72.147 21.1833 72.2996 21.4676 72.467C21.5459 72.5128 21.5719 72.6135 21.5258 72.6918C21.4801 72.7695 21.3797 72.796 21.3015 72.7503C21.2739 72.7342 20.6822 72.4093 20.0873 73.0023C20.0554 73.0345 20.0134 73.0504 19.9714 73.0504Z" fill="#241726"/>
<path d="M58.0697 71.556C58.0244 71.556 57.9792 71.5374 57.9469 71.5008C57.9267 71.478 57.4508 70.962 56.7033 71.3167C56.6212 71.3549 56.5234 71.3206 56.4847 71.2385C56.4458 71.1567 56.4806 71.0585 56.5628 71.0197C57.3434 70.6499 57.9708 71.0303 58.1931 71.2833C58.2531 71.3516 58.2464 71.4552 58.1783 71.5152C58.1469 71.5425 58.1083 71.556 58.0697 71.556Z" fill="#241726"/>
<path d="M56.7743 72.5236C56.7289 72.5236 56.6838 72.505 56.6514 72.4684C56.6311 72.4456 56.1549 71.9297 55.4078 72.2844C55.3261 72.3225 55.2282 72.2883 55.1893 72.2061C55.1503 72.1244 55.1852 72.0261 55.2674 71.9873C56.048 71.6178 56.6752 71.998 56.8977 72.2509C56.9577 72.3192 56.951 72.4228 56.8827 72.4828C56.8513 72.51 56.8127 72.5236 56.7743 72.5236Z" fill="#241726"/>
<path d="M54.5969 72.338C54.5515 72.338 54.5064 72.3194 54.474 72.2829C54.4537 72.2601 53.9781 71.7441 53.2308 72.0988C53.1486 72.1369 53.0511 72.1027 53.012 72.0205C52.9731 71.9388 53.0079 71.8405 53.09 71.8018C53.8709 71.4323 54.4978 71.8124 54.7203 72.0654C54.7803 72.1337 54.7736 72.2373 54.7053 72.2973C54.674 72.3246 54.6355 72.338 54.5969 72.338Z" fill="#241726"/>
<path d="M52.4036 71.455C52.3555 71.455 52.3078 71.4342 52.2755 71.3937C52.2187 71.3231 52.2298 71.2195 52.3005 71.1628C52.9827 70.614 53.6702 70.8417 53.9377 71.0393C54.0108 71.0932 54.0263 71.1959 53.9725 71.269C53.9192 71.3418 53.8164 71.3575 53.7436 71.3043C53.7183 71.2864 53.1572 70.8948 52.5064 71.4189C52.4761 71.4431 52.4397 71.455 52.4036 71.455Z" fill="#241726"/>
<path d="M54.7757 71.2748C54.7251 71.2748 54.6753 71.2513 54.6429 71.2074C54.5895 71.1343 54.6054 71.0313 54.6787 70.978C55.3839 70.4623 56.0609 70.7221 56.3209 70.9315C56.3915 70.9885 56.4025 71.0918 56.3456 71.1624C56.289 71.233 56.186 71.2438 56.1154 71.1877C56.0925 71.1701 55.5456 70.7512 54.8723 71.2429C54.8432 71.2645 54.8092 71.2748 54.7757 71.2748Z" fill="#241726"/>
<path d="M51.9173 73.2069C51.8667 73.2069 51.8169 73.1835 51.7845 73.1396C51.7311 73.0664 51.747 72.9635 51.8203 72.9102C52.5253 72.3944 53.203 72.6542 53.4623 72.8636C53.5331 72.9206 53.5441 73.0239 53.4872 73.0946C53.4306 73.1649 53.3276 73.1763 53.257 73.1199C53.2339 73.1016 52.6875 72.6833 52.0139 73.175C51.9848 73.1966 51.9508 73.2069 51.9173 73.2069Z" fill="#241726"/>
<path d="M50.5236 72.451C50.4816 72.451 50.4394 72.4349 50.4074 72.4029C50.3433 72.3388 50.3433 72.2344 50.4077 72.1707C51.0318 71.5469 51.7354 71.7002 52.0199 71.8676C52.098 71.9134 52.1239 72.0141 52.078 72.0924C52.0321 72.1701 51.9314 72.196 51.8541 72.1512C51.8289 72.1368 51.2363 71.808 50.6396 72.4029C50.6075 72.4349 50.5657 72.451 50.5236 72.451Z" fill="#241726"/>
<path d="M6.3366 67.4599C6.2077 67.4599 6.07832 67.4502 5.9516 67.4313C5.86191 67.4182 5.80004 67.3344 5.81332 67.2449C5.82676 67.155 5.91035 67.0938 6.00004 67.1066C6.20098 67.1361 6.40848 67.1383 6.6116 67.1152C6.70191 67.1058 6.78316 67.1694 6.79348 67.2596C6.80395 67.3497 6.73926 67.4311 6.6491 67.4418C6.54535 67.4538 6.44113 67.4599 6.3366 67.4599ZM7.26832 67.293C7.20066 67.293 7.13707 67.251 7.11348 67.1833C7.08332 67.0977 7.12816 67.0041 7.21379 66.9739C7.40238 66.9075 7.59332 66.8191 7.7816 66.711C7.86035 66.6661 7.96066 66.6927 8.00582 66.7716C8.05098 66.8502 8.02379 66.9505 7.9452 66.9958C7.73957 67.1138 7.5302 67.2107 7.32285 67.2838C7.30488 67.2902 7.28645 67.293 7.26832 67.293ZM5.3466 67.2524C5.32488 67.2524 5.30254 67.2479 5.28098 67.2386C5.07535 67.1488 4.8741 67.0314 4.68301 66.8894C4.6102 66.8352 4.5952 66.7325 4.6491 66.6597C4.70332 66.5866 4.80613 66.5719 4.87895 66.6257C5.05004 66.7527 5.22941 66.8579 5.41254 66.9377C5.49566 66.9739 5.53363 67.0708 5.49723 67.1538C5.47035 67.2155 5.41004 67.2524 5.3466 67.2524ZM8.40551 66.6478C8.35707 66.6478 8.30926 66.6268 8.27676 66.586C8.22035 66.5147 8.23223 66.4114 8.30316 66.355C8.46535 66.2261 8.62348 66.0824 8.77316 65.9278C8.83629 65.8624 8.9402 65.8611 9.00535 65.9239C9.07066 65.9871 9.07223 66.091 9.00926 66.1561C8.84957 66.321 8.68082 66.4743 8.50754 66.6122C8.47738 66.6363 8.44129 66.6478 8.40551 66.6478ZM4.29285 66.4836C4.2491 66.4836 4.20551 66.4663 4.17301 66.4316C4.02551 66.2744 3.88129 66.0977 3.74457 65.9066C3.69176 65.8328 3.70879 65.7302 3.78254 65.6772C3.8566 65.6246 3.95895 65.6416 4.01176 65.7153C4.14004 65.895 4.27488 66.0605 4.41254 66.2071C4.47473 66.2732 4.47145 66.3771 4.40535 66.4389C4.37363 66.4688 4.33316 66.4836 4.29285 66.4836ZM9.31848 65.7071C9.28395 65.7071 9.24926 65.6961 9.21973 65.6736C9.14723 65.6191 9.13301 65.5161 9.1877 65.4436C9.31754 65.2718 9.43566 65.0933 9.53832 64.9135C9.58301 64.8349 9.68332 64.8077 9.76238 64.8522C9.84113 64.8974 9.86848 64.9975 9.82348 65.0764C9.71379 65.2685 9.58801 65.4588 9.44973 65.6419C9.41738 65.6847 9.36816 65.7071 9.31848 65.7071ZM3.52629 65.4213C3.46879 65.4213 3.4127 65.3908 3.3827 65.3369C3.26988 65.1349 3.17426 64.9261 3.09801 64.7169C3.06691 64.6316 3.11082 64.5377 3.19613 64.5066C3.28129 64.4755 3.37566 64.5194 3.4066 64.6047C3.47676 64.7975 3.56535 64.9902 3.66941 65.1772C3.71363 65.2564 3.6852 65.3564 3.60598 65.4005C3.58082 65.4146 3.55332 65.4213 3.52629 65.4213ZM3.08238 64.1916C3.00395 64.1916 2.93473 64.1355 2.92066 64.0557C2.88379 63.843 2.86504 63.6269 2.86504 63.4122L3.02957 63.3735L3.19363 63.3939C3.19348 63.6079 3.21066 63.8055 3.24426 63.9991C3.25988 64.0886 3.20004 64.1736 3.11051 64.1889C3.10113 64.191 3.0916 64.1916 3.08238 64.1916ZM3.09582 62.8853C3.08551 62.8853 3.07535 62.8844 3.06488 62.8825C2.97566 62.8655 2.91738 62.7793 2.93441 62.6903C2.9766 62.4703 3.03848 62.2494 3.11879 62.0325C3.15035 61.9475 3.2441 61.9039 3.32988 61.9357C3.41488 61.9671 3.45832 62.0618 3.42676 62.1468C3.35285 62.3463 3.29566 62.5499 3.25707 62.7519C3.24191 62.8305 3.17316 62.8853 3.09582 62.8853ZM3.54676 61.6577C3.51973 61.6577 3.49254 61.651 3.46738 61.6372C3.38801 61.5933 3.35926 61.4932 3.40332 61.4139C3.5116 61.2186 3.63582 61.0272 3.7727 60.8447C3.82691 60.7722 3.9302 60.7572 4.00254 60.8118C4.0752 60.8663 4.08988 60.9693 4.03535 61.0418C3.9077 61.2124 3.7916 61.391 3.69082 61.5732C3.66066 61.6272 3.60441 61.6577 3.54676 61.6577ZM6.8066 61.3238C6.80332 61.3238 6.80004 61.3238 6.7966 61.3235C6.58051 61.3107 6.35238 61.2757 6.11895 61.2196C6.03098 61.1985 5.9766 61.1096 5.9977 61.0213C6.01879 60.9335 6.10629 60.8796 6.19598 60.9C6.41051 60.9518 6.61926 60.9838 6.81629 60.9957C6.90676 61.0011 6.97582 61.0788 6.97035 61.1693C6.9652 61.2564 6.89285 61.3238 6.8066 61.3238ZM7.45941 61.2791C7.38473 61.2791 7.31707 61.2278 7.29957 61.1518C7.27926 61.0636 7.33441 60.9753 7.4227 60.9549C7.63754 60.9052 7.79816 60.8163 7.88691 60.6977C7.94098 60.6249 8.0441 60.6099 8.11676 60.6643C8.18941 60.7185 8.20426 60.8214 8.15004 60.8939C8.01223 61.0786 7.79238 61.2066 7.4966 61.275C7.4841 61.2778 7.4716 61.2791 7.45941 61.2791ZM5.53191 61.0239C5.5116 61.0239 5.49066 61.02 5.47066 61.0121C5.25941 60.9271 5.05379 60.828 4.85926 60.7171C4.78035 60.6722 4.75301 60.5718 4.79785 60.4928C4.84254 60.4139 4.94285 60.3868 5.02191 60.4316C5.20379 60.5352 5.39582 60.6282 5.59332 60.7074C5.67754 60.741 5.71816 60.8369 5.68441 60.921C5.65848 60.985 5.59676 61.0239 5.53191 61.0239ZM4.33066 60.6093C4.28941 60.6093 4.24816 60.5938 4.21613 60.5627C4.15113 60.4996 4.14973 60.3957 4.21285 60.3305C4.22301 60.3202 4.23301 60.31 4.24316 60.2997C4.08051 60.1699 3.92816 60.0291 3.7891 59.8808C3.72707 59.8147 3.73035 59.7108 3.79645 59.6489C3.86301 59.5868 3.9666 59.5899 4.02863 59.6563C4.16707 59.8038 4.3202 59.9433 4.48395 60.0713C4.55988 60.0039 4.6377 59.9388 4.71707 59.8766C4.78848 59.8202 4.89176 59.833 4.9477 59.9043C5.00379 59.9755 4.99145 60.0788 4.92004 60.1346C4.75441 60.2647 4.59566 60.4078 4.44801 60.5596C4.41613 60.5925 4.37348 60.6093 4.33066 60.6093ZM8.1016 60.333C8.02957 60.333 7.96348 60.2852 7.94348 60.2124C7.9216 60.1338 7.88816 60.0491 7.84363 59.961C7.79504 59.8647 7.73707 59.7788 7.67098 59.7057C7.6102 59.6383 7.61551 59.5347 7.68285 59.4738C7.74973 59.4135 7.85395 59.4183 7.91473 59.4857C8.00035 59.5807 8.0752 59.6907 8.13676 59.8128C8.19113 59.9207 8.23254 60.0255 8.26004 60.1252C8.28426 60.2124 8.23301 60.3028 8.14551 60.3272C8.13098 60.3311 8.11629 60.333 8.1016 60.333ZM5.36207 59.801C5.30535 59.801 5.2502 59.7714 5.21988 59.7189C5.17441 59.6407 5.20129 59.54 5.27973 59.4947C5.48598 59.3753 5.69426 59.2769 5.89926 59.2022C5.98457 59.1718 6.07848 59.215 6.10988 59.3C6.14098 59.3853 6.09707 59.4796 6.01191 59.5107C5.82488 59.5789 5.6341 59.6691 5.44441 59.7788C5.41816 59.7939 5.38988 59.801 5.36207 59.801ZM3.50301 59.418C3.44957 59.418 3.39723 59.3921 3.36551 59.3439C3.23926 59.1518 3.13113 58.9478 3.04363 58.738C3.00863 58.6543 3.04832 58.5582 3.13207 58.5232C3.21566 58.4894 3.31207 58.5277 3.34676 58.6116C3.42645 58.8027 3.52504 58.9885 3.64004 59.1636C3.68973 59.2393 3.66879 59.3413 3.59285 59.391C3.5652 59.4094 3.53395 59.418 3.50301 59.418ZM7.24316 59.4168C7.2277 59.4168 7.21223 59.4146 7.1966 59.41C7.02426 59.3591 6.82332 59.3436 6.61051 59.3668C6.51863 59.3757 6.43926 59.3116 6.42941 59.2211C6.41957 59.131 6.48473 59.0502 6.57488 59.0402C6.8327 59.0119 7.07582 59.0319 7.28957 59.095C7.3766 59.1207 7.42613 59.2121 7.40051 59.2989C7.37941 59.3705 7.31395 59.4168 7.24316 59.4168ZM3.00145 58.2133C2.92535 58.2133 2.85707 58.16 2.84098 58.0829C2.79488 57.8629 2.76816 57.6341 2.76145 57.4028C2.75895 57.3121 2.8302 57.2364 2.92082 57.2338C3.01145 57.2305 3.08707 57.3027 3.08988 57.3932C3.09598 57.6052 3.12035 57.8146 3.16238 58.0153C3.18098 58.1043 3.1241 58.1911 3.03535 58.2097C3.02395 58.2124 3.01254 58.2133 3.00145 58.2133ZM2.9352 56.9055C2.93207 56.9055 2.9291 56.9055 2.92598 56.9052C2.83535 56.9003 2.76598 56.8229 2.77113 56.7324C2.78379 56.5024 2.80707 56.2772 2.8402 56.0633C2.85426 55.9741 2.93816 55.9128 3.0277 55.9264C3.11738 55.9405 3.17879 56.0243 3.16488 56.1141C3.13332 56.3171 3.11113 56.5314 3.09895 56.7503C3.0941 56.8378 3.02176 56.9055 2.9352 56.9055ZM3.14113 55.6121C3.12629 55.6121 3.11113 55.6102 3.09629 55.606C3.0091 55.5813 2.95832 55.4905 2.98301 55.4033C3.04676 55.1775 3.12504 54.9624 3.21566 54.7635C3.25332 54.6807 3.35113 54.6449 3.43316 54.6821C3.51582 54.7196 3.55223 54.8171 3.51457 54.8996C3.43082 55.0836 3.35816 55.2832 3.29895 55.4925C3.27863 55.5649 3.2127 55.6121 3.14113 55.6121ZM5.06895 54.5247C5.06285 54.5247 5.05676 54.5244 5.05051 54.5238C4.8191 54.4978 4.5916 54.4443 4.37426 54.3641C4.2891 54.333 4.24566 54.2383 4.27691 54.1533C4.30848 54.0683 4.40348 54.0247 4.48785 54.0561C4.68035 54.1271 4.88191 54.1744 5.08707 54.1972C5.17723 54.2075 5.24207 54.2886 5.23207 54.3788C5.22254 54.4625 5.15145 54.5247 5.06895 54.5247ZM5.72379 54.5141C5.64395 54.5141 5.57395 54.4557 5.5616 54.3746C5.54801 54.2847 5.60957 54.201 5.69926 54.1875C5.92035 54.1539 6.11613 54.0872 6.25066 53.9989C6.32629 53.9496 6.42832 53.971 6.47785 54.0468C6.52754 54.1224 6.50629 54.2244 6.4302 54.2741C6.25473 54.3886 6.01895 54.471 5.74848 54.5121C5.74035 54.5135 5.73207 54.5141 5.72379 54.5141ZM3.68957 54.426C3.65691 54.426 3.62363 54.4163 3.59488 54.3958C3.52082 54.3435 3.50316 54.2408 3.55566 54.1668C3.59723 54.108 3.64051 54.051 3.68504 53.9961C3.52238 53.8779 3.37066 53.7414 3.23332 53.5897C3.17238 53.5224 3.1777 53.4185 3.24488 53.3575C3.31207 53.2972 3.41598 53.3021 3.47676 53.3691C3.60707 53.5132 3.75176 53.6418 3.90723 53.7511C3.94285 53.7161 3.9791 53.6822 4.01613 53.6494C4.08363 53.5888 4.18738 53.5952 4.24785 53.6632C4.30801 53.7311 4.30176 53.835 4.23395 53.895C4.08504 54.0272 3.94691 54.1824 3.82395 54.3566C3.79191 54.4019 3.74113 54.426 3.68957 54.426ZM6.49879 53.7553C6.45035 53.7553 6.40254 53.7341 6.37004 53.6935C6.35863 53.6791 6.34535 53.6646 6.33035 53.6502C6.21863 53.5436 6.06941 53.4622 5.90035 53.415C5.81316 53.3907 5.76191 53.3002 5.78629 53.213C5.81066 53.1255 5.90113 53.0741 5.98848 53.0988C6.20895 53.16 6.40566 53.2688 6.55754 53.4132C6.58457 53.4394 6.60738 53.4641 6.62707 53.4888C6.68332 53.56 6.6716 53.6633 6.60066 53.7197C6.57066 53.7438 6.53457 53.7553 6.49879 53.7553ZM4.66816 53.5716C4.60723 53.5716 4.54879 53.5375 4.52051 53.4793C4.48066 53.3978 4.51457 53.2997 4.59598 53.2599C4.81473 53.153 5.04207 53.0838 5.27191 53.0533C5.36363 53.0399 5.44426 53.105 5.45613 53.1947C5.46801 53.2846 5.40473 53.3672 5.31488 53.3791C5.1202 53.4047 4.92676 53.4638 4.74004 53.5549C4.71676 53.5661 4.69223 53.5716 4.66816 53.5716ZM2.97066 53.1132C2.9141 53.1132 2.85895 53.0839 2.82848 53.0314C2.71832 52.8416 2.62113 52.6327 2.54004 52.4111C2.50879 52.3261 2.55238 52.2319 2.63754 52.2003C2.72332 52.1696 2.81691 52.2129 2.84832 52.2982C2.92301 52.5018 3.01207 52.693 3.1127 52.8664C3.15832 52.945 3.13145 53.0454 3.05301 53.091C3.02707 53.1061 2.99863 53.1132 2.97066 53.1132ZM2.5127 51.8886C2.43707 51.8886 2.36895 51.836 2.35238 51.7591C2.33926 51.6982 2.32691 51.636 2.31535 51.5727C2.28535 51.4085 2.26145 51.2494 2.24363 51.0958C2.23301 51.0057 2.2977 50.9243 2.38785 50.9136C2.4802 50.9047 2.55926 50.9682 2.56988 51.058C2.58707 51.2046 2.60957 51.3566 2.63832 51.5138C2.64926 51.5738 2.66098 51.6321 2.67348 51.6899C2.69254 51.7783 2.63629 51.866 2.54754 51.8849C2.53582 51.8874 2.52426 51.8886 2.5127 51.8886ZM2.36457 50.586C2.27457 50.586 2.20129 50.5135 2.20035 50.4233L2.2002 50.3771C2.2002 50.1599 2.21316 49.9475 2.23863 49.7466C2.2502 49.6564 2.33301 49.5936 2.42223 49.6043C2.51223 49.6158 2.57582 49.6978 2.56441 49.7877C2.54051 49.9757 2.52848 50.1738 2.52848 50.3772L2.52863 50.4202C2.52957 50.5107 2.45676 50.585 2.36613 50.586C2.36566 50.586 2.36504 50.586 2.36457 50.586ZM2.53598 49.2899C2.52035 49.2899 2.50457 49.2877 2.48895 49.2832C2.40207 49.2569 2.3527 49.1655 2.37863 49.0785C2.44566 48.8546 2.53254 48.6403 2.63707 48.4422C2.67941 48.3621 2.77848 48.3316 2.85895 48.3736C2.9391 48.416 2.96988 48.5153 2.92754 48.5955C2.83285 48.7747 2.75395 48.9691 2.69316 49.1728C2.67191 49.2439 2.60676 49.2899 2.53598 49.2899ZM3.14645 48.1385C3.10941 48.1385 3.07207 48.126 3.04145 48.1004C2.97191 48.0422 2.96238 47.9386 3.02066 47.8691C3.16723 47.6933 3.33395 47.5318 3.51613 47.3886C3.58754 47.3332 3.69051 47.345 3.7466 47.4164C3.8027 47.4877 3.7902 47.591 3.71879 47.6471C3.55473 47.7757 3.40473 47.9213 3.2727 48.0794C3.24035 48.1183 3.19363 48.1385 3.14645 48.1385ZM4.17207 47.3305C4.11191 47.3305 4.0541 47.2975 4.0252 47.24C3.98441 47.1589 4.01723 47.0603 4.09816 47.0197C4.46598 46.8347 4.74301 46.7766 4.75457 46.7741C4.84395 46.7552 4.93004 46.8128 4.94832 46.9018C4.9666 46.9905 4.90957 47.0775 4.82082 47.0958C4.81848 47.0964 4.57191 47.1491 4.24582 47.313C4.22207 47.3252 4.19676 47.3305 4.17207 47.3305Z" fill="#241726"/>
<path d="M73.767 47.743C73.7624 47.743 73.7575 47.7427 73.753 47.7424C73.525 47.7229 73.296 47.6732 73.0722 47.5943C72.9867 47.5641 72.9419 47.4702 72.972 47.3849C73.0022 47.2993 73.0955 47.2537 73.1816 47.2845C73.3789 47.354 73.5806 47.398 73.7808 47.4154C73.8713 47.423 73.9381 47.5026 73.9305 47.593C73.9233 47.6787 73.8514 47.743 73.767 47.743ZM74.4205 47.7113C74.3428 47.7113 74.2738 47.6562 74.2591 47.577C74.2425 47.4877 74.3016 47.4021 74.3908 47.3859C74.5875 47.3493 74.7847 47.2865 74.9766 47.1988C75.0594 47.1613 75.1563 47.1976 75.1942 47.2799C75.2317 47.3627 75.1955 47.4598 75.113 47.4977C74.8966 47.5965 74.6738 47.6674 74.4505 47.7085C74.4403 47.7104 74.4303 47.7113 74.4205 47.7113ZM72.5361 47.3188C72.5067 47.3188 72.4769 47.3109 72.45 47.2945C72.2602 47.1771 72.076 47.0382 71.9024 46.8807C71.8352 46.8201 71.83 46.7162 71.891 46.6488C71.9516 46.5815 72.0558 46.5763 72.123 46.6376C72.2816 46.7813 72.4497 46.9084 72.6225 47.0148C72.6997 47.0626 72.7236 47.1637 72.676 47.2409C72.645 47.2912 72.5911 47.3188 72.5361 47.3188ZM75.6102 47.1802C75.5592 47.1802 75.5089 47.1565 75.4769 47.1123C75.4238 47.0385 75.4403 46.9359 75.5139 46.8829C75.6755 46.7662 75.837 46.6285 75.9941 46.4737C76.0591 46.4102 76.1628 46.4109 76.2263 46.4755C76.29 46.5401 76.2892 46.644 76.2247 46.7077C76.0556 46.8741 75.8814 47.0227 75.7061 47.149C75.677 47.1702 75.6435 47.1802 75.6102 47.1802ZM71.5655 46.4432C71.5167 46.4432 71.4686 46.4216 71.4363 46.3804C71.29 46.1943 71.1641 46.0007 71.0617 45.8054C71.0197 45.7249 71.0506 45.6257 71.131 45.5834C71.2114 45.542 71.3105 45.5724 71.3525 45.6526C71.4456 45.8305 71.5606 46.0073 71.6944 46.1776C71.7505 46.2488 71.738 46.3521 71.6667 46.4082C71.6367 46.4316 71.601 46.4432 71.5655 46.4432ZM76.5483 46.2671C76.5122 46.2671 76.4758 46.2552 76.4455 46.2309C76.3749 46.1741 76.3638 46.0705 76.4205 45.9999C76.5028 45.8973 76.5853 45.7885 76.6675 45.6738C76.713 45.6099 76.7556 45.5465 76.7956 45.4837C76.8449 45.4074 76.9463 45.3849 77.0224 45.4334C77.0989 45.4821 77.1213 45.5838 77.0727 45.6601C77.0294 45.728 76.9835 45.796 76.9347 45.8645C76.8488 45.9851 76.7625 46.0988 76.6763 46.206C76.6439 46.2463 76.5964 46.2671 76.5483 46.2671ZM77.2397 45.1555C77.2188 45.1555 77.1972 45.1513 77.1767 45.143C77.093 45.108 77.0533 45.0123 77.088 44.9282C77.1702 44.731 77.2303 44.5309 77.267 44.3335C77.2838 44.2443 77.3685 44.1854 77.4588 44.2023C77.548 44.219 77.6066 44.3046 77.5902 44.3937C77.5491 44.6137 77.4822 44.836 77.3914 45.0545C77.3652 45.1173 77.3041 45.1555 77.2397 45.1555ZM77.4728 43.8745C77.3861 43.8745 77.3136 43.8065 77.3089 43.7188C77.2983 43.5149 77.2636 43.3102 77.2053 43.1104C77.18 43.0235 77.23 42.9324 77.317 42.9068C77.4041 42.8821 77.4952 42.9315 77.5205 43.0187C77.5858 43.2429 77.625 43.4726 77.6369 43.7015C77.6416 43.7923 77.5719 43.8696 77.4814 43.874C77.4786 43.8745 77.4758 43.8745 77.4728 43.8745ZM77.1145 42.6224C77.0558 42.6224 76.9991 42.591 76.9694 42.5355C76.8742 42.357 76.7585 42.1805 76.6253 42.0115C76.5694 41.9399 76.5816 41.8366 76.6528 41.7809C76.7241 41.7245 76.8277 41.7376 76.8835 41.808C77.0286 41.9924 77.155 42.1852 77.2594 42.3809C77.302 42.461 77.2717 42.5605 77.1917 42.6032C77.1669 42.6163 77.1405 42.6224 77.1145 42.6224ZM73.9289 41.8655C73.8397 41.8655 73.7664 41.794 73.7647 41.7046C73.763 41.6141 73.835 41.5391 73.9255 41.5373C74.1088 41.5337 74.3105 41.4982 74.525 41.4318C74.6127 41.4046 74.7036 41.4537 74.7305 41.5402C74.7572 41.6268 74.7088 41.7188 74.6222 41.7455C74.3781 41.8209 74.146 41.8616 73.932 41.8659C73.9311 41.8655 73.93 41.8655 73.9289 41.8655ZM73.3011 41.7112C73.2691 41.7112 73.2366 41.7018 73.2083 41.6823C73.0003 41.5393 72.8858 41.3176 72.8858 41.0585C72.8858 41.0259 72.8875 40.9921 72.8913 40.9577C72.9008 40.8673 72.9802 40.8005 73.072 40.8118C73.1622 40.8215 73.2275 40.9023 73.2178 40.9924C73.2155 41.0152 73.2142 41.0373 73.2142 41.0585C73.2142 41.2105 73.2749 41.3295 73.3944 41.4116C73.4691 41.4629 73.488 41.5652 73.4367 41.6399C73.4047 41.6865 73.3533 41.7112 73.3011 41.7112ZM76.3099 41.5913C76.2695 41.5913 76.2292 41.5766 76.1977 41.5471C76.0597 41.4176 75.9119 41.2954 75.7575 41.183C75.5903 41.2955 75.4216 41.3963 75.2549 41.4826C75.1741 41.5243 75.075 41.4926 75.0336 41.412C74.992 41.3315 75.0235 41.2323 75.1041 41.1907C75.2835 41.098 75.4658 40.9871 75.6463 40.861C75.6966 40.8257 75.7605 40.8232 75.8125 40.8482C75.8414 40.8504 75.8703 40.8601 75.8956 40.878C76.081 41.0088 76.2581 41.1535 76.4222 41.3071C76.4885 41.3693 76.4917 41.4732 76.4297 41.5393C76.3972 41.574 76.3536 41.5913 76.3099 41.5913ZM75.2395 40.8351C75.2142 40.8351 75.1885 40.8293 75.1642 40.8168C74.97 40.716 74.7749 40.634 74.5842 40.5727C74.4978 40.5451 74.4503 40.4527 74.4781 40.3662C74.5061 40.2799 74.5989 40.2324 74.6847 40.2604C74.8927 40.3271 75.1049 40.4163 75.3153 40.5249C75.3958 40.5666 75.4272 40.6657 75.3855 40.7462C75.3563 40.8026 75.2991 40.8351 75.2395 40.8351ZM76.2564 40.7545C76.2106 40.7545 76.1652 40.7355 76.1328 40.6984C76.0731 40.6301 76.08 40.5262 76.1485 40.4665C76.3056 40.3291 76.4614 40.1801 76.6119 40.0226C76.6744 39.9571 76.7788 39.9549 76.8439 40.0174C76.9095 40.0799 76.9119 40.1838 76.8492 40.2496C76.6922 40.4138 76.5292 40.5701 76.3645 40.714C76.3331 40.741 76.2947 40.7545 76.2564 40.7545ZM73.3581 40.5826C73.3039 40.5826 73.2508 40.5557 73.2195 40.5065C73.1708 40.4302 73.1933 40.3285 73.2695 40.2798C73.4339 40.1752 73.6449 40.122 73.8964 40.122C73.9256 40.1195 73.9644 40.1229 73.9997 40.1248C74.0903 40.1293 74.1599 40.2065 74.1555 40.297C74.1508 40.3877 74.0733 40.4612 73.9831 40.4526C73.9538 40.451 73.9216 40.448 73.8969 40.4504C73.7111 40.4504 73.5555 40.4873 73.4464 40.5568C73.4189 40.5743 73.3883 40.5826 73.3581 40.5826ZM77.1641 39.8074C77.1277 39.8074 77.0911 39.7952 77.0606 39.7705C76.9902 39.7135 76.9797 39.6099 77.0369 39.5396C77.1691 39.377 77.3 39.2038 77.4263 39.0249C77.4785 38.9509 77.5814 38.9329 77.6552 38.9851C77.7292 39.0374 77.747 39.1399 77.6949 39.214C77.5644 39.399 77.4288 39.5784 77.2917 39.7468C77.2591 39.787 77.2119 39.8074 77.1641 39.8074ZM77.921 38.7352C77.8916 38.7352 77.8619 38.7276 77.8352 38.7109C77.7578 38.6634 77.7336 38.5624 77.7813 38.4851C77.861 38.3552 77.94 38.2209 78.018 38.0816C78.0469 38.0298 78.0744 37.9784 78.1005 37.9268C78.1417 37.846 78.2406 37.8141 78.3211 37.8543C78.402 37.8954 78.4345 37.9941 78.3936 38.0749C78.3653 38.1304 78.3358 38.1862 78.3045 38.242C78.2242 38.3849 78.1431 38.5232 78.0611 38.657C78.03 38.7073 77.9761 38.7352 77.921 38.7352ZM78.4942 37.5576C78.4783 37.5576 78.462 37.5554 78.446 37.5502C78.3592 37.5237 78.3106 37.432 78.3372 37.3449C78.3999 37.1416 78.4417 36.9363 78.4617 36.7349C78.4705 36.6445 78.548 36.581 78.6413 36.5874C78.7314 36.5963 78.7975 36.677 78.7885 36.767C78.7663 36.9905 78.7202 37.2173 78.6511 37.4418C78.6294 37.5123 78.5645 37.5576 78.4942 37.5576ZM78.6181 36.2599C78.5361 36.2599 78.4652 36.1987 78.4552 36.1149C78.4311 35.9132 78.3844 35.7096 78.3164 35.5107C78.287 35.4248 78.333 35.3315 78.4188 35.302C78.5042 35.2734 78.5981 35.3187 78.6272 35.4043C78.7027 35.6252 78.7545 35.8513 78.7813 36.0765C78.792 36.1663 78.7277 36.248 78.6377 36.2587C78.6313 36.2596 78.6245 36.2599 78.6181 36.2599ZM78.202 35.0248C78.1449 35.0248 78.0894 34.9949 78.0591 34.9413C77.9586 34.7643 77.8395 34.5888 77.7047 34.4198C77.6481 34.3488 77.6597 34.2455 77.7305 34.1891C77.8016 34.133 77.9049 34.144 77.9613 34.2151C78.1069 34.3976 78.236 34.5874 78.3449 34.7796C78.3895 34.8585 78.3619 34.9585 78.283 35.0032C78.2572 35.018 78.2295 35.0248 78.202 35.0248ZM77.3888 33.9971C77.3478 33.9971 77.307 33.982 77.275 33.9515C77.125 33.8079 76.9617 33.669 76.7892 33.5387C76.7169 33.4838 76.7025 33.3809 76.7572 33.3084C76.8117 33.2359 76.9147 33.2221 76.9872 33.2763C77.1699 33.4143 77.3431 33.5618 77.5025 33.7141C77.568 33.777 77.5702 33.8809 77.5074 33.9463C77.475 33.9802 77.4319 33.9971 77.3888 33.9971ZM73.4713 33.7765C73.1514 33.7765 72.9497 33.561 72.9317 33.2001C72.9272 33.1096 72.997 33.0327 73.0877 33.0282C73.1744 33.0135 73.2553 33.0934 73.2599 33.1841C73.273 33.448 73.4069 33.448 73.4713 33.448C73.5605 33.448 73.6439 33.5193 73.6461 33.6084C73.648 33.6976 73.5891 33.772 73.4999 33.7759C73.4974 33.7762 73.4738 33.7765 73.4713 33.7765ZM74.097 33.5391C74.0435 33.5391 73.9911 33.5132 73.9595 33.4651C73.9099 33.3891 73.9308 33.2874 74.0067 33.2377C74.1644 33.1341 74.3258 33.0007 74.4864 32.8404C74.5508 32.777 74.6547 32.7766 74.7186 32.8407C74.7825 32.9052 74.7825 33.0091 74.7183 33.0732C74.542 33.249 74.3633 33.3968 74.187 33.5123C74.1594 33.5305 74.1281 33.5391 74.097 33.5391ZM76.3436 33.2054C76.3149 33.2054 76.2858 33.198 76.2594 33.182C76.0753 33.072 75.885 32.9713 75.6941 32.8834C75.6117 32.8455 75.5758 32.748 75.6138 32.6655C75.6516 32.5827 75.7483 32.5465 75.8317 32.5851C76.0333 32.678 76.2339 32.784 76.4281 32.9004C76.506 32.947 76.5313 33.0476 76.4847 33.1255C76.4539 33.1768 76.3994 33.2054 76.3436 33.2054ZM73.2708 32.7405C73.2313 32.7405 73.1919 32.7265 73.1605 32.6979C73.0933 32.637 73.0883 32.533 73.1492 32.466C73.3045 32.2948 73.5366 32.1896 73.8389 32.1534C73.9311 32.1421 74.0108 32.2066 74.0217 32.2968C74.0325 32.3866 73.9683 32.4684 73.8783 32.4793C73.6595 32.5059 73.4916 32.5774 73.3922 32.6868C73.3599 32.7223 73.3153 32.7405 73.2708 32.7405ZM75.1513 32.6579C75.1344 32.6579 75.1175 32.6554 75.1006 32.6499C75.0736 32.6413 75.0466 32.6326 75.0197 32.6246C74.9969 32.6227 74.9741 32.6163 74.9533 32.6048C74.7927 32.5585 74.6366 32.5237 74.488 32.5005C74.3985 32.4865 74.337 32.4027 74.3511 32.3129C74.365 32.2237 74.4483 32.1635 74.5388 32.176C74.6777 32.1979 74.8217 32.2287 74.9697 32.2684C75.0699 32.1285 75.1645 31.9816 75.2519 31.8302C75.2972 31.7516 75.3978 31.7245 75.4763 31.7702C75.5549 31.8155 75.5817 31.9159 75.5364 31.9945C75.457 32.1318 75.372 32.2659 75.2825 32.3948C75.3136 32.4362 75.3249 32.4916 75.3077 32.5446C75.285 32.6135 75.2206 32.6579 75.1513 32.6579ZM75.6885 31.4891C75.6667 31.4891 75.6447 31.4849 75.6233 31.4757C75.54 31.4398 75.5019 31.3429 75.5378 31.2599C75.6219 31.0655 75.6955 30.8641 75.7569 30.6612C75.783 30.5746 75.8749 30.5255 75.9616 30.5515C76.0483 30.5777 76.0975 30.6691 76.0713 30.7562C76.0063 30.9713 75.9283 31.1846 75.8394 31.3902C75.8125 31.4523 75.7519 31.4891 75.6885 31.4891ZM76.0677 30.2348C76.058 30.2348 76.0483 30.2338 76.0383 30.2323C75.9491 30.2162 75.8899 30.1305 75.9058 30.0415C75.9435 29.833 75.9694 29.6201 75.9827 29.4087C75.9883 29.3182 76.067 29.2451 76.157 29.2551C76.2475 29.2609 76.3163 29.3388 76.3105 29.4293C76.2964 29.6535 76.2689 29.879 76.2292 30.0999C76.2147 30.179 76.1456 30.2348 76.0677 30.2348ZM76.1411 28.9276C76.0574 28.9276 75.986 28.8641 75.9778 28.7791C75.9575 28.5668 75.9167 28.3626 75.8563 28.172C75.8288 28.0854 75.8766 27.993 75.9631 27.9657C76.05 27.9391 76.142 27.9862 76.1694 28.0726C76.2367 28.2852 76.2825 28.5123 76.3047 28.7477C76.3133 28.8382 76.2472 28.9184 76.1569 28.927C76.1516 28.9271 76.1463 28.9276 76.1411 28.9276ZM75.7435 27.6909C75.688 27.6909 75.6338 27.6626 75.6028 27.612C75.498 27.4388 75.3705 27.2755 75.2236 27.126C75.1602 27.0612 75.1611 26.9573 75.2256 26.8938C75.2905 26.8301 75.3939 26.831 75.458 26.8957C75.6224 27.0632 75.7658 27.247 75.8838 27.4413C75.9308 27.519 75.9061 27.6199 75.8285 27.6671C75.8017 27.683 75.7724 27.6909 75.7435 27.6909ZM74.8361 26.7562C74.8044 26.7562 74.7722 26.7468 74.7438 26.7276C74.5778 26.6146 74.3933 26.5098 74.1952 26.4165C74.1133 26.378 74.0781 26.2799 74.1167 26.198C74.1552 26.1155 74.2536 26.081 74.3353 26.1195C74.5489 26.2202 74.7486 26.3334 74.9288 26.4562C75.0036 26.5071 75.0231 26.6095 74.9719 26.6843C74.9402 26.7312 74.8885 26.7562 74.8361 26.7562ZM73.6539 26.1907C73.6369 26.1907 73.6197 26.188 73.6028 26.1827C73.4055 26.1179 73.1972 26.0615 72.9841 26.0146C72.8955 25.9954 72.8394 25.9077 72.8588 25.8193C72.878 25.7304 72.965 25.6743 73.0542 25.6938C73.2781 25.7429 73.4972 25.8023 73.705 25.8702C73.7911 25.8988 73.8381 25.9915 73.8099 26.0777C73.7874 26.1468 73.723 26.1907 73.6539 26.1907ZM72.3705 25.906C72.3636 25.906 72.3566 25.9057 72.3494 25.9048C71.9689 25.856 71.7131 25.8538 71.7105 25.8538C71.6199 25.8532 71.5469 25.7791 71.5474 25.6887C71.548 25.5982 71.6213 25.5254 71.7116 25.5254C71.723 25.5276 71.9775 25.5263 72.391 25.579C72.481 25.5905 72.5444 25.6726 72.533 25.7627C72.5227 25.8454 72.4519 25.906 72.3705 25.906Z" fill="#241726"/>
<path d="M65.1168 35.8179C65.1168 35.8179 61.6173 29.9382 62.996 30.2622C64.3749 30.5863 65.4766 34.2955 65.4766 34.2955C65.4766 34.2955 65.6732 26.8696 66.6004 27.9861C67.5277 29.1027 66.6004 32.9046 66.6004 32.9046C66.6004 32.9046 66.5919 26.7769 67.7552 27.9861C68.9185 29.1954 67.7552 33.3683 67.7552 33.3683C67.7552 33.3683 68.9185 28.2207 69.4749 29.2182C70.0313 30.2155 68.6404 34.3885 68.6404 34.3885C68.6404 34.3885 70.5877 31.1315 70.9587 31.8791C71.3296 32.6266 67.7552 37.0777 67.7552 37.0777V40.2305L64.7457 39.703L65.1168 35.8179Z" fill="#E38B72"/>
<path d="M66.8303 36.252C66.8158 36.252 66.8009 36.2502 66.7862 36.2459C66.6991 36.2219 66.6478 36.1314 66.6719 36.0439C66.7522 35.7533 66.8842 34.9211 66.5337 34.5663C66.3366 34.3664 65.995 34.3286 65.5186 34.4541C65.4312 34.4784 65.3412 34.4248 65.318 34.337C65.2948 34.2495 65.3473 34.1597 65.4348 34.1366C66.0331 33.9791 66.4817 34.0464 66.768 34.3361C67.323 34.8989 67.002 36.0819 66.9883 36.1319C66.9683 36.2047 66.9022 36.252 66.8303 36.252Z" fill="#241726"/>
<path d="M66.6005 33.0689C66.5133 33.0689 66.4407 33.0003 66.4366 32.912C66.4055 32.2298 66.5461 30.3305 66.5522 30.25C66.5588 30.1595 66.6386 30.0903 66.7282 30.0983C66.8186 30.105 66.8865 30.1839 66.8797 30.2744C66.8783 30.2939 66.7346 32.2347 66.7647 32.8972C66.769 32.9877 66.6986 33.0647 66.6082 33.0684C66.6057 33.0689 66.6032 33.0689 66.6005 33.0689Z" fill="#241726"/>
<path d="M67.7552 33.5318C67.746 33.5318 67.7366 33.5312 67.7273 33.5296C67.6377 33.5143 67.5779 33.4292 67.5932 33.3398L68.0912 30.4392C68.1065 30.35 68.1915 30.2898 68.2807 30.3051C68.3702 30.3204 68.4301 30.4054 68.4148 30.495L67.9168 33.3956C67.9032 33.4754 67.8338 33.5318 67.7552 33.5318Z" fill="#241726"/>
<path d="M63.8082 36.667C63.8082 36.667 63.946 46.6573 63.2425 46.9356C62.5391 47.2139 55.7867 42.9996 55.7867 42.9996L40.0202 44.1834L24.2272 45.5006C24.2272 45.5006 9.36378 52.2906 9.22315 54.5415C9.08253 56.7923 16.5558 60.9182 16.5558 60.9182L20.0375 57.2782L13.301 54.8164L22.2586 51.6048C20.4632 58.1243 19.8132 63.6086 19.8132 63.6086L32.5569 63.3945L35.9321 72.5417L39.8852 72.2032L40.6378 63.2587L41.9236 63.2371L42.6782 72.2032L46.6313 72.5417L50.1153 63.0995L63.7771 62.87C63.7771 62.87 61.8199 55.6217 58.0867 47.9601C60.8864 48.7982 64.4722 49.8732 65.0431 50.0528C66 50.3536 68.6089 38.1593 68.6089 38.1593L63.8082 36.667Z" fill="#DF4F3E"/>
<path d="M38.1107 41.3944L39.3002 62.1311L18.8174 62.1863L19.2394 66.3514L65.0438 64.9798L64.5911 60.7856L41.7955 61.7094C41.7955 61.7094 41.0936 40.6078 40.4607 40.7133C39.8279 40.8188 38.1107 41.3944 38.1107 41.3944Z" fill="white"/>
<path d="M19.2396 66.5156C19.1556 66.5156 19.0846 66.4522 19.0762 66.3681L18.6542 62.2028C18.6495 62.1566 18.6646 62.1108 18.6956 62.0761C18.7267 62.0417 18.7707 62.0219 18.8171 62.0219L39.1267 61.967L37.9468 41.4034C37.9424 41.3297 37.9884 41.262 38.0585 41.2386C38.1292 41.2148 39.7953 40.6578 40.434 40.5513C40.4796 40.5439 40.5567 40.5653 40.5934 40.5955C41.2201 41.1086 41.7868 56.5328 41.9543 61.5384L64.5848 60.6213C64.6676 60.62 64.7454 60.6819 64.7546 60.7678L65.2071 64.9619C65.2121 65.0075 65.1978 65.053 65.1676 65.0873C65.1376 65.122 65.0945 65.1422 65.0489 65.1438L19.2446 66.5156C19.2429 66.5156 19.2412 66.5156 19.2396 66.5156ZM18.9993 62.3497L19.3878 66.1827L64.8617 64.8209L64.4448 60.9559L41.8024 61.8736C41.7609 61.8739 41.7163 61.8595 41.6842 61.8297C41.6521 61.7998 41.6334 61.7584 41.6318 61.7148C41.3696 53.835 40.831 41.9727 40.4004 40.8919C39.8374 41.0048 38.6593 41.3864 38.2818 41.5109L39.4643 62.1219C39.4668 62.1667 39.4509 62.2111 39.4199 62.2438C39.3892 62.2764 39.346 62.2955 39.3009 62.2955L18.9993 62.3497Z" fill="#241726"/>
<path d="M24.0644 16.7635C24.0644 16.7635 35.655 9.4946 41.0008 13.7149C46.3464 17.9352 58.4822 27.9882 38.343 34.559C18.2038 41.1298 19.1408 19.999 24.0644 16.7635Z" fill="#E38B72"/>
<path d="M24.5009 18.7871C24.5009 18.7871 18.0159 29.5598 27.7226 33.9207C37.4294 38.2817 29.3404 24.9929 36.5148 24.9226C43.6892 24.8523 43.1675 33.9595 46.2917 28.5098C50.7229 20.7803 38.5037 14.8459 40.3325 14.5645C42.1612 14.2831 43.4236 13.794 43.9706 14.8642C45.5884 18.0293 64.5092 20.7725 62.399 31.3232C60.2889 41.8739 53.8178 49.4704 35.2487 50.0331C16.6795 50.5961 11.6856 38.7793 16.4686 29.9167C21.2515 21.0542 18.74 19.5025 20.2875 19.3618C21.8348 19.2212 24.5009 18.7871 24.5009 18.7871Z" fill="#F4F1E3"/>
<path d="M37.2529 27.201C36.7015 27.201 35.1993 26.0377 34.5517 25.5143C34.4812 25.4576 34.4703 25.354 34.5271 25.2833C34.5843 25.2132 34.6873 25.2016 34.7582 25.259C35.6915 26.013 36.8248 26.8 37.1749 26.8722C37.1474 26.354 36.1292 23.9216 35.1003 21.738C35.0617 21.656 35.0968 21.5582 35.1787 21.5196C35.261 21.4811 35.3589 21.5157 35.3973 21.5982C36.0931 23.0744 37.6882 26.5621 37.4749 27.061C37.4484 27.1229 37.4007 27.1682 37.3406 27.1883C37.3148 27.1968 37.2856 27.201 37.2529 27.201Z" fill="#241726"/>
<path d="M38.0384 32.1263C37.9377 32.1263 37.8197 32.0981 37.6856 32.0212C36.1358 31.1334 34.5737 28.0329 34.5081 27.9015C34.4675 27.8204 34.5005 27.7215 34.5816 27.6812C34.6625 27.6404 34.7614 27.6738 34.8019 27.7546C34.8175 27.786 36.385 30.8978 37.8489 31.7363C38.0114 31.829 38.0961 31.7973 38.1458 31.7653C38.7495 31.374 38.6841 28.322 38.5009 26.4903C38.4919 26.4001 38.5577 26.3196 38.648 26.3106C38.7398 26.3006 38.8187 26.3673 38.8278 26.4574C38.8783 26.9629 39.2934 31.4126 38.3244 32.0406C38.2541 32.0863 38.1583 32.1263 38.0384 32.1263Z" fill="#241726"/>
<path d="M29.0992 26.6384C27.1601 26.6384 26.1967 22.875 26.1559 22.7118C26.1337 22.624 26.1873 22.5348 26.2753 22.5126C26.3635 22.4911 26.4525 22.544 26.4745 22.6323C26.4842 22.6701 27.4543 26.4403 29.187 26.3065C29.4795 26.285 29.6867 26.1703 29.8201 25.9556C30.389 25.0415 29.4781 22.7564 29.4687 22.7336C29.4348 22.6492 29.4754 22.5536 29.5596 22.5196C29.6429 22.4864 29.7393 22.5264 29.7732 22.6104C29.8139 22.7104 30.7556 25.0736 30.099 26.1287C29.9089 26.4343 29.6101 26.6043 29.2112 26.6342C29.1735 26.6368 29.1362 26.6384 29.0992 26.6384Z" fill="#241726"/>
<path d="M40.592 23.6999C40.5297 23.6999 40.4615 23.6929 40.3868 23.6771C38.6443 23.3054 38.1978 20.0876 38.1797 19.9507C38.1678 19.8609 38.2309 19.7785 38.3208 19.7667C38.4104 19.7499 38.4931 19.8176 38.5051 19.9077C38.5093 19.9388 38.9386 23.0323 40.4553 23.3559C40.685 23.4046 40.7825 23.3312 40.8345 23.2712C41.2712 22.7712 40.7356 20.6423 40.2954 19.4177C40.2648 19.3324 40.309 19.2385 40.3945 19.2077C40.479 19.1776 40.5736 19.2215 40.6045 19.3068C40.7276 19.6493 41.7881 22.6785 41.0818 23.4871C40.9915 23.5909 40.8379 23.6999 40.592 23.6999Z" fill="#241726"/>
<path d="M27.9679 30.3194C28.6842 29.8899 28.9167 28.9611 28.4873 28.2448C28.0579 27.5285 27.129 27.2959 26.4127 27.7254C25.6964 28.1548 25.4639 29.0836 25.8933 29.7999C26.3227 30.5162 27.2515 30.7488 27.9679 30.3194Z" fill="#DF4F3E"/>
<path d="M43.6538 25.0434C44.4889 25.0434 45.166 24.3664 45.166 23.5312C45.166 22.6961 44.4889 22.019 43.6538 22.019C42.8186 22.019 42.1416 22.6961 42.1416 23.5312C42.1416 24.3664 42.8186 25.0434 43.6538 25.0434Z" fill="#DF4F3E"/>
<path d="M38.057 12.2904C38.057 12.2904 34.389 6.35352 28.2423 3.25868C22.0954 0.163838 13.0923 10.7848 13.0923 10.7848L21.1812 8.53399C21.1812 8.53399 19.6545 16.0145 20.2874 16.8362C20.9203 17.6579 38.057 12.2904 38.057 12.2904Z" fill="#DF4F3E"/>
<path d="M12.3197 13.0373C13.5124 13.0373 14.4792 12.0705 14.4792 10.8778C14.4792 9.68512 13.5124 8.71826 12.3197 8.71826C11.127 8.71826 10.1602 9.68512 10.1602 10.8778C10.1602 12.0705 11.127 13.0373 12.3197 13.0373Z" fill="white"/>
<path d="M12.3198 13.2017C11.0386 13.2017 9.99609 12.1594 9.99609 10.8781C9.99609 9.59686 11.0386 8.5542 12.3198 8.5542C13.6011 8.5542 14.6436 9.59686 14.6436 10.8781C14.6436 12.1594 13.6011 13.2017 12.3198 13.2017ZM12.3198 8.88248C11.2195 8.88248 10.3244 9.77764 10.3244 10.8779C10.3244 11.9779 11.2195 12.8731 12.3198 12.8731C13.42 12.8731 14.3152 11.9779 14.3152 10.8779C14.3152 9.77764 13.42 8.88248 12.3198 8.88248Z" fill="#241726"/>
<path d="M19.2394 16.3944C19.2394 16.3944 39.7313 8.61878 41.4144 10.3803C43.0976 12.1419 43.9705 14.8644 43.9705 14.8644C43.9705 14.8644 20.126 22.7047 19.6337 21.6685C19.1412 20.6322 19.2394 16.3944 19.2394 16.3944Z" fill="white"/>
<path d="M19.97 21.9258C19.5738 21.9258 19.5242 21.8216 19.4849 21.7388C18.9816 20.6794 19.071 16.5652 19.075 16.3903C19.0766 16.3236 19.1185 16.2642 19.181 16.2405C21.2886 15.441 39.8241 8.47893 41.5327 10.2664C43.2224 12.0352 44.0903 14.7011 44.1264 14.8139C44.1541 14.8999 44.107 14.9919 44.0214 15.0199C43.9617 15.0397 37.9897 17.0016 32.0341 18.8117C23.5706 21.3846 20.872 21.9258 19.97 21.9258ZM19.7724 21.5778C20.7161 22.0441 34.8922 17.673 43.7608 14.7602C43.5488 14.1633 42.7053 11.9692 41.2956 10.4936C40.12 9.26299 27.6 13.4028 19.4016 16.5085C19.3906 17.1744 19.3552 20.6485 19.7724 21.5778Z" fill="#241726"/>
<path d="M20.8049 27.5867C21.6742 26.7174 21.6742 25.308 20.8049 24.4387C19.9356 23.5695 18.5262 23.5695 17.657 24.4387C16.7877 25.308 16.7877 26.7174 17.657 27.5867C18.5262 28.4559 19.9356 28.4559 20.8049 27.5867Z" fill="#E38B72"/>
<path d="M48.0174 20.032C49.2468 20.032 50.2434 19.0354 50.2434 17.806C50.2434 16.5767 49.2468 15.5801 48.0174 15.5801C46.7881 15.5801 45.7915 16.5767 45.7915 17.806C45.7915 19.0354 46.7881 20.032 48.0174 20.032Z" fill="#E38B72"/>
<path d="M19.8884 26.8947C19.8087 26.8947 19.7387 26.8367 19.7262 26.7555C19.5534 25.6394 19.2416 25.3202 19.0106 25.2488C18.65 25.1381 18.2544 25.5538 18.2501 25.5577C18.1886 25.6241 18.0848 25.6278 18.0181 25.5656C17.9519 25.5038 17.948 25.4005 18.0098 25.3341C18.0316 25.3106 18.5483 24.7635 19.1059 24.9344C19.5731 25.0775 19.8909 25.6733 20.0508 26.7055C20.0645 26.795 20.0033 26.8789 19.9137 26.8928C19.9051 26.8941 19.8967 26.8947 19.8884 26.8947Z" fill="#241726"/>
<path d="M47.6914 19.3025C47.6201 19.3025 47.5547 19.2559 47.5337 19.1842C47.23 18.1437 47.2567 17.375 47.6128 16.9003C47.9475 16.4539 48.444 16.4487 48.4651 16.4487C48.5559 16.4487 48.6293 16.5222 48.6293 16.6129C48.6293 16.7034 48.5564 16.7765 48.4662 16.7772C48.4517 16.7775 48.1058 16.7858 47.872 17.102C47.5889 17.485 47.5809 18.1733 47.849 19.0925C47.8743 19.1794 47.8245 19.2704 47.7375 19.2958C47.722 19.3003 47.7065 19.3025 47.6914 19.3025Z" fill="#241726"/>
<path d="M18.7188 5.60031C18.7188 5.60031 20.8289 8.39359 23.6423 7.33843C26.4559 6.28343 25.4008 3.32921 27.2295 6.14265C29.0583 8.95609 33.6022 7.05187 33.5372 6.99359C33.4722 6.93531 29.9023 2.90703 26.878 1.99265C23.8534 1.07843 18.7188 5.60031 18.7188 5.60031Z" fill="#F4F1E3"/>
<path d="M18.8169 58.2275C18.8169 58.2275 21.8489 59.7794 20.8364 62.6021C19.8239 65.4246 14.2608 67.1127 15.3951 65.4549C16.0809 64.4525 19.1934 63.503 19.1934 63.503C19.1934 63.503 15.1173 64.8433 14.343 63.9779C13.9181 63.503 18.2223 62.8127 18.3878 62.8102C18.5533 62.8079 15.9228 63.1386 15.2898 62.1866C14.6569 61.2346 18.335 62.9755 18.817 61.1291C19.2991 59.2827 17.9803 59.3882 17.9803 59.3882L18.8169 58.2275Z" fill="#E38B72"/>
<path d="M21.2009 55.8603C21.2009 55.8603 60.3548 52.9984 60.4252 53.2094C60.4955 53.4203 61.468 55.8809 61.468 55.8809L20.7773 57.8586L21.2009 55.8603Z" fill="#241726"/>
<path d="M36.3516 53.5327L43.6884 52.9072V58.2279L37.0975 58.8913L36.3516 53.5327Z" fill="#E1AF01"/>
<path d="M38.186 54.6974L41.8545 54.3848V57.0451L38.559 57.3768L38.186 54.6974Z" fill="#241726"/>
<path d="M21.1806 8.69823C21.1088 8.69823 21.0428 8.65073 21.0227 8.57792C20.9983 8.49073 21.0494 8.40026 21.1367 8.37589C22.0877 8.11089 24.1492 8.22026 24.2366 8.22542C24.3272 8.23026 24.3964 8.30792 24.3914 8.39823C24.3866 8.4887 24.3097 8.5612 24.2186 8.55308C24.1978 8.55245 22.1236 8.44214 21.225 8.69198C21.2102 8.6962 21.1952 8.69823 21.1806 8.69823Z" fill="#241726"/>
<path d="M36.1162 14.5396C36.0934 14.5396 36.0703 14.5348 36.0484 14.5249C35.9658 14.4874 35.9293 14.3899 35.967 14.3074C36.1465 13.9132 36.3784 13.6935 36.6562 13.6538C37.0648 13.5974 37.3883 13.9649 37.4018 13.981C37.4609 14.0496 37.4531 14.1526 37.3848 14.212C37.3165 14.2713 37.2129 14.2635 37.1533 14.1955C37.0923 14.126 36.8922 13.9521 36.7014 13.9791C36.5029 14.0084 36.355 14.2479 36.2659 14.4435C36.2383 14.5041 36.1786 14.5396 36.1162 14.5396Z" fill="#241726"/>
<path d="M37.8622 15.5229C37.8394 15.5229 37.8163 15.5181 37.7944 15.5081C37.7118 15.4706 37.6755 15.3731 37.713 15.2906C37.8924 14.8963 38.1243 14.6767 38.4022 14.637C38.8108 14.5793 39.1343 14.9481 39.1479 14.9642C39.2069 15.0328 39.1991 15.1357 39.1308 15.1951C39.0626 15.2545 38.9591 15.2467 38.8993 15.1787C38.8383 15.1092 38.6366 14.9365 38.4474 14.9623C38.2488 14.9915 38.101 15.231 38.0119 15.4267C37.9843 15.4873 37.9247 15.5229 37.8622 15.5229Z" fill="#241726"/>
<path d="M34.0678 15.0104C34.045 15.0104 34.0219 15.0055 34 14.9957C33.9175 14.9582 33.8811 14.8607 33.9186 14.7782C34.0979 14.384 34.33 14.164 34.6078 14.1243C35.0184 14.0666 35.3398 14.4354 35.3534 14.4515C35.4125 14.5201 35.4047 14.623 35.3364 14.6824C35.2679 14.7418 35.1645 14.7344 35.1048 14.666C35.0439 14.5965 34.8469 14.4177 34.6529 14.4499C34.4545 14.4788 34.3065 14.7183 34.2173 14.9143C34.1898 14.9747 34.1301 15.0104 34.0678 15.0104Z" fill="#241726"/>
<path d="M35.7973 15.9012C35.7745 15.9012 35.7515 15.8964 35.7295 15.8865C35.6468 15.849 35.6106 15.7515 35.6481 15.669C35.8275 15.2748 36.0593 15.0548 36.3373 15.0151C36.747 14.9564 37.0695 15.3262 37.0829 15.3423C37.142 15.4109 37.1342 15.5139 37.0659 15.5732C36.9975 15.6326 36.894 15.6253 36.8343 15.5568C36.7734 15.4873 36.5762 15.3079 36.3825 15.3407C36.184 15.3696 36.0361 15.6092 35.947 15.8051C35.9193 15.8656 35.8598 15.9012 35.7973 15.9012Z" fill="#241726"/>
<path d="M33.6797 16.5872C33.6569 16.5872 33.6338 16.5824 33.6119 16.5725C33.5292 16.535 33.4928 16.4376 33.5305 16.3551C33.7099 15.9608 33.9419 15.7408 34.2197 15.7011C34.63 15.6424 34.9517 16.0122 34.9653 16.0283C35.0244 16.0969 35.0166 16.1999 34.9483 16.2593C34.8799 16.3186 34.7764 16.3111 34.7167 16.2429C34.6558 16.1733 34.457 15.9949 34.2649 16.0268C34.0664 16.0557 33.9184 16.2952 33.8292 16.4911C33.8017 16.5518 33.742 16.5872 33.6797 16.5872Z" fill="#241726"/>
<path d="M63.5395 36.0879L63.354 37.819L69.0415 39.6426L69.7524 37.6643L63.5395 36.0879Z" fill="white"/>
<path d="M69.0415 39.8071C69.0248 39.8071 69.0079 39.8046 68.9913 39.7994L63.304 37.9755C63.2299 37.9514 63.1826 37.8789 63.1909 37.8013L63.3762 36.0704C63.3812 36.0232 63.4067 35.9802 63.4456 35.9533C63.4846 35.9261 63.5337 35.9171 63.5798 35.9289L69.7928 37.5057C69.8376 37.5169 69.8757 37.5468 69.8973 37.5877C69.9192 37.6285 69.9224 37.6766 69.907 37.7202L69.196 39.6985C69.172 39.765 69.109 39.8071 69.0415 39.8071ZM63.5317 37.7035L68.9407 39.438L69.5368 37.7796L63.6826 36.2936L63.5317 37.7035Z" fill="#241726"/>
<path d="M19.0097 55.8989L15.1655 60.6188L16.7057 61.7095L21.0376 56.6055L19.0097 55.8989Z" fill="white"/>
<path d="M16.7054 61.8736C16.6726 61.8736 16.6393 61.8636 16.6106 61.8434L15.0703 60.7527C15.0332 60.7264 15.0087 60.6859 15.0025 60.6408C14.9964 60.5959 15.0092 60.5503 15.0379 60.515L18.8823 55.7952C18.9259 55.7413 18.9984 55.7205 19.0637 55.7439L21.0915 56.4505C21.1426 56.4681 21.1817 56.5102 21.1959 56.562C21.2101 56.6144 21.1976 56.6705 21.1628 56.7116L16.8309 61.8155C16.7986 61.8538 16.7523 61.8736 16.7054 61.8736ZM15.4037 60.5863L16.6778 61.4884L20.7575 56.6817L19.0645 56.0919L15.4037 60.5863Z" fill="#241726"/>
<path d="M34.9692 48.895C34.736 48.895 34.4905 48.8748 34.2325 48.8304C32.7749 48.5803 31.7897 47.9815 31.1733 47.3095C31.1658 47.3187 31.1583 47.3281 31.1505 47.337C30.6463 47.9406 29.4911 48.857 27.4185 48.2068C25.5638 47.6254 24.7164 46.607 24.396 45.6596C24.0035 46.1353 23.5196 46.5484 22.9956 46.7418C22.4017 46.9612 21.5106 46.9871 20.6464 45.8628C19.7461 44.6915 19.5817 43.7214 19.6531 43.0301C19.4288 43.0609 19.1977 43.0718 18.9655 43.0584C17.9681 42.9996 17.218 42.4898 16.8533 41.6224C16.265 40.2235 16.7577 38.8739 17.4381 38.0351C16.9714 37.7435 16.4263 37.1787 16.3002 36.107C16.1405 34.75 16.88 33.5851 17.7266 32.8443C17.3324 32.5582 17.0252 32.1426 16.8496 31.6368C16.6271 30.9964 16.6488 30.4431 16.9139 29.9918C17.3563 29.2387 18.3108 29.0631 18.3513 29.0559C18.441 29.0385 18.5255 29.0995 18.5413 29.1887C18.5572 29.2782 18.4977 29.3632 18.4085 29.3792C18.4002 29.3807 17.56 29.5379 17.196 30.1598C16.9828 30.5239 16.9706 30.9846 17.1597 31.529C17.3536 32.0871 17.6819 32.4239 17.9942 32.6268C18.3914 32.3267 18.7939 32.1226 19.1236 32.0367C19.7264 31.8807 19.9121 32.1582 19.9644 32.2849C20.0631 32.5239 20.038 32.7548 19.8935 32.9357C19.6727 33.2115 19.1933 33.3331 18.6703 33.2423C18.4411 33.2032 18.2239 33.1298 18.0231 33.0268C17.2175 33.7045 16.4777 34.8068 16.6263 36.0685C16.7416 37.0484 17.2478 37.5423 17.6603 37.7854C17.8719 37.5695 18.0917 37.4031 18.296 37.2985C18.7635 37.0593 19.1649 37.1182 19.3706 37.4551C19.5539 37.7556 19.4527 37.9721 19.3761 38.0742C19.1603 38.3624 18.6152 38.4578 18.0503 38.3057C17.9758 38.2859 17.8656 38.2509 17.7361 38.1935C17.1055 38.9492 16.6166 40.2137 17.1558 41.4957C17.5577 42.4512 18.3721 42.6946 18.9846 42.7309C19.2269 42.7446 19.4728 42.7276 19.7106 42.6876C19.7496 42.5234 19.8002 42.382 19.851 42.2649C20.1113 41.6674 20.6111 41.2204 21.0664 41.1773C21.2911 41.1562 21.4775 41.237 21.5919 41.4049C21.7178 41.5893 21.7192 41.8107 21.5963 42.0278C21.3811 42.4071 20.7505 42.794 19.9916 42.9684C19.9016 43.5945 20.0249 44.5159 20.9064 45.6628C21.4041 46.3103 21.9514 46.5996 22.5341 46.5214C23.2158 46.4306 23.8378 45.8684 24.2892 45.2612C24.1919 44.766 24.2281 44.3125 24.3224 43.9806C24.4778 43.4331 24.7992 43.1217 25.1217 43.2031C25.1931 43.2214 25.3606 43.2939 25.3753 43.5729C25.3953 43.9596 25.1105 44.6728 24.6427 45.3359C24.8749 46.2539 25.6397 47.3054 27.5161 47.8934C29.4074 48.4867 30.4464 47.6679 30.898 47.1268C30.9181 47.1024 30.9381 47.0781 30.9575 47.0531C30.4946 46.4485 30.3078 45.8139 30.3269 45.3379C30.3505 44.7429 30.6702 44.3459 31.1614 44.301C31.4314 44.277 31.6528 44.4043 31.7867 44.66C32.0533 45.1682 31.9336 46.191 31.3689 47.0439C31.9363 47.6828 32.8728 48.2639 34.2877 48.5067C36.4049 48.872 37.611 47.461 38.0313 46.8385C38.1528 46.6579 38.2575 46.4748 38.3456 46.2943C37.896 45.6334 37.6856 44.9649 37.831 44.5615C37.9088 44.3457 38.0828 44.2096 38.3211 44.1782C38.5663 44.1465 38.7677 44.2385 38.8908 44.4381C39.1247 44.8165 39.0458 45.5264 38.7238 46.261C38.826 46.3981 38.9405 46.5362 39.0678 46.6732C39.5969 47.2415 41.0385 48.5056 43.0014 47.9542C44.7653 47.459 45.6222 45.9445 45.8547 44.6489C45.1472 44.1489 44.6836 43.5632 44.5983 43.109C44.5252 42.719 44.7224 42.4268 45.1256 42.3271C45.6061 42.2092 45.9914 42.5173 46.1589 43.1528C46.2539 43.5123 46.2746 43.9796 46.2056 44.4879C47.0897 45.069 48.3528 45.521 49.7633 45.3375C50.9844 45.1793 51.4985 44.0773 51.7146 43.1809C51.8567 42.5904 51.8991 41.9582 51.868 41.3695C51.0236 40.7762 50.4063 40.0042 50.2914 39.4832C50.2075 39.1021 50.3828 38.9159 50.4947 38.8389C50.7647 38.6524 51.0531 38.6467 51.3071 38.8209C51.785 39.149 52.105 40.1054 52.1855 41.1898C52.6744 41.5103 53.2324 41.7635 53.7931 41.8601C54.8849 42.0471 55.756 41.6324 56.3831 40.626C57.4453 38.922 56.9433 37.6064 56.4946 36.9223C56.1105 36.9335 55.7552 36.8818 55.4494 36.7803C54.8767 36.5901 54.5206 36.234 54.4967 35.8278C54.4856 35.641 54.5699 35.4984 54.7278 35.4359C55.1347 35.2759 55.9417 35.7137 56.5264 36.4148C56.5683 36.4648 56.6138 36.5223 56.6611 36.587C57.5753 36.5145 58.636 36.059 59.488 35.0474C60.5711 33.7614 59.9596 31.9842 59.0697 30.8876C58.7928 31.0454 58.5447 31.0868 58.3881 31.0939C57.8805 31.1143 57.3955 30.8556 57.2347 30.4714C57.1283 30.2164 57.1864 29.9598 57.3946 29.7678C57.7177 29.4692 58.3072 29.6565 58.9332 30.2543C58.9977 30.3162 59.0625 30.3823 59.1272 30.4524C59.4858 30.1526 59.7875 29.6468 59.9981 28.9729C60.5517 27.2018 59.355 25.7939 58.2086 25.2396C58.0977 25.6085 57.88 25.8499 57.7341 25.9779C57.2683 26.3871 56.5871 26.502 56.2153 26.2335C56.0889 26.1421 55.8208 25.8685 56.0621 25.2984C56.3221 24.6839 57.0555 24.4854 57.9463 24.7792C57.9524 24.4279 57.8421 24.0306 57.6141 23.6095C56.8599 22.2149 55.6042 21.7926 54.6513 21.8096C54.6369 21.9279 54.6105 22.0467 54.5719 22.1649C54.3886 22.7262 53.9696 23.1403 53.5756 23.1493C53.3299 23.1484 53.1331 23.0021 53.0303 22.7301C52.8772 22.3251 53.1025 21.927 53.6183 21.6914C53.8263 21.596 54.0686 21.53 54.3319 21.4979C54.3096 21.125 54.1411 20.6551 53.5785 20.2237C51.7986 18.859 50.093 20.4662 50.0213 20.5354C49.9561 20.5979 49.8522 20.5964 49.7891 20.5309C49.7263 20.4657 49.728 20.3618 49.7931 20.299C49.8127 20.2798 51.7725 18.4251 53.7783 19.9632C54.3178 20.3767 54.6235 20.9132 54.6606 21.476C55.7685 21.4581 57.1252 22.0148 57.903 23.4529C58.2219 24.0428 58.3058 24.5245 58.2721 24.9068C59.556 25.4906 60.9371 27.0692 60.3114 29.071C60.0475 29.9159 59.6872 30.411 59.3399 30.6996C60.2625 31.8459 60.9967 33.7654 59.7391 35.259C58.8799 36.2792 57.815 36.7728 56.8638 36.8937C57.328 37.6798 57.7471 39.0585 56.6617 40.7998C55.7838 42.2084 54.5869 42.3293 53.7374 42.1837C53.2002 42.0914 52.6758 41.8723 52.2039 41.5884C52.2146 42.149 52.1613 42.7273 52.0335 43.2578C51.6938 44.6667 50.9024 45.521 49.8049 45.6632C48.408 45.8442 47.1008 45.4301 46.1441 44.8403C45.8552 46.2101 44.9288 47.7543 43.0899 48.2704C40.9533 48.8706 39.3971 47.5096 38.8271 46.8968C38.7338 46.7968 38.6456 46.6942 38.5633 46.5906C38.4855 46.7362 38.3986 46.8809 38.303 47.0223C37.8991 47.622 36.8211 48.8946 34.9692 48.895ZM31.228 44.6262C31.2153 44.6262 31.203 44.6271 31.1916 44.6281C30.8727 44.657 30.6722 44.9273 30.6553 45.351C30.6396 45.7465 30.788 46.2654 31.1525 46.7731C31.5988 46.0476 31.7049 45.2101 31.4961 44.8121C31.4139 44.6553 31.3099 44.6262 31.228 44.6262ZM38.4156 44.5004C38.3992 44.5004 38.3822 44.5014 38.3639 44.504C38.2472 44.519 38.1761 44.5729 38.14 44.6728C38.0517 44.9181 38.1731 45.397 38.5014 45.9332C38.72 45.3504 38.7535 44.8403 38.6116 44.6106C38.5655 44.5354 38.5038 44.5004 38.4156 44.5004ZM25.0191 43.5139C24.9267 43.5139 24.7461 43.6924 24.6389 44.0703C24.5785 44.2832 24.5456 44.5526 24.566 44.8518C24.7027 44.6276 24.8125 44.4106 24.8902 44.222C25.0888 43.7396 25.0527 43.5417 25.0321 43.5154C25.028 43.5145 25.0235 43.5139 25.0191 43.5139ZM45.3156 42.6315C45.2806 42.6315 45.2438 42.636 45.2049 42.6456C44.9675 42.7043 44.8802 42.8284 44.9214 43.0481C44.9817 43.3689 45.3386 43.8396 45.9056 44.2742C45.9413 43.8806 45.9171 43.5214 45.8416 43.236C45.7796 43.0001 45.6314 42.6315 45.3156 42.6315ZM21.1358 41.5023C21.1238 41.5023 21.1111 41.5029 21.0977 41.5042C20.8092 41.531 20.3919 41.8464 20.1525 42.3957C20.1253 42.4582 20.0985 42.5285 20.0739 42.6065C20.6633 42.4432 21.1503 42.1489 21.311 41.8656C21.3916 41.7232 21.3553 41.6398 21.3211 41.5895C21.3056 41.5671 21.2614 41.5023 21.1358 41.5023ZM50.9199 39.0224C50.8438 39.0224 50.7652 39.0514 50.6814 39.109C50.6524 39.1289 50.5636 39.1901 50.6125 39.4121C50.7047 39.831 51.1783 40.4307 51.8316 40.9368C51.7269 40.0478 51.455 39.3204 51.1216 39.0914C51.0546 39.0456 50.9881 39.0224 50.9199 39.0224ZM17.9761 37.9368C18.0397 37.9606 18.0942 37.9773 18.136 37.9885C18.6017 38.115 18.9989 38.0306 19.1135 37.8776C19.1313 37.8539 19.1853 37.7817 19.0905 37.6265C18.9425 37.384 18.623 37.5001 18.4456 37.5909C18.2958 37.6674 18.135 37.7851 17.9761 37.9368ZM54.9214 35.7296C54.8922 35.7296 54.8678 35.7335 54.8492 35.7409C54.8363 35.746 54.8216 35.7518 54.825 35.8082C54.8405 36.0715 55.1196 36.3243 55.5533 36.4682C55.7616 36.5375 55.9963 36.5804 56.248 36.5931C55.7302 35.9865 55.1613 35.7296 54.9214 35.7296ZM18.3197 32.7982C18.4942 32.871 18.6416 32.9045 18.7263 32.9189C19.1194 32.9865 19.4944 32.9092 19.6371 32.7306C19.7063 32.644 19.7142 32.5395 19.6611 32.4109C19.6008 32.2649 19.2981 32.331 19.2063 32.3548C18.9492 32.4217 18.6371 32.5746 18.3197 32.7982ZM57.7772 29.955C57.7114 29.955 57.6572 29.9723 57.618 30.0085C57.5127 30.1057 57.4858 30.2185 57.5383 30.3443C57.6299 30.5634 57.961 30.7904 58.3735 30.7654C58.5389 30.7578 58.6988 30.7142 58.851 30.6365C58.8033 30.5862 58.755 30.5378 58.7067 30.4915C58.3528 30.1532 57.9994 29.955 57.7772 29.955ZM57.1791 24.976C56.8235 24.976 56.5047 25.096 56.365 25.426C56.2897 25.6043 56.236 25.8426 56.4081 25.9671C56.6266 26.1249 57.1357 26.0665 57.5178 25.731C57.7117 25.5607 57.8402 25.351 57.9027 25.1107C57.6735 25.0299 57.4178 24.976 57.1791 24.976ZM54.3152 21.8356C54.0988 21.8657 53.9078 21.9199 53.7555 21.9895C53.5881 22.0662 53.2122 22.2801 53.3382 22.6135C53.4175 22.8235 53.5328 22.8249 53.5686 22.8204C53.7838 22.8156 54.1096 22.5243 54.2603 22.0626C54.2797 22.0029 54.3005 21.926 54.3152 21.8356Z" fill="#241726"/>
<path d="M34.6855 71.8096L40.203 71.3818L40.0205 72.9589L35.3812 73.3142L34.6855 71.8096Z" fill="white"/>
<path d="M40.3213 71.2682C40.2872 71.2329 40.2385 71.2137 40.1902 71.2185L34.6728 71.6463C34.6193 71.6502 34.571 71.6804 34.5439 71.7268C34.5168 71.7734 34.5139 71.8301 34.5364 71.8788L35.2321 73.3834C35.2589 73.4418 35.3174 73.4787 35.3811 73.4787C35.3853 73.4787 35.3894 73.4787 35.3936 73.4784L36.4263 73.3991C36.6527 75.1218 30.4061 75.4079 34.3658 76.2132C37.9647 76.9452 38.0722 74.2798 38.0372 73.5587L38.1991 75.6154L39.5003 75.2285L39.1489 73.1904L40.033 73.1226C40.1114 73.1168 40.1746 73.0559 40.1836 72.9779L40.3661 71.4009C40.3716 71.3523 40.3552 71.3034 40.3213 71.2682ZM39.8728 72.8057L35.4822 73.1418L34.9336 71.9554L40.0169 71.5612L39.8728 72.8057Z" fill="#241726"/>
<path d="M42.1963 70.9238L47.76 71.1488L47.3429 72.7771L42.1963 72.959V70.9238Z" fill="white"/>
<path d="M46.1569 72.9833L47.3486 72.9412C47.4214 72.9387 47.4838 72.8882 47.5019 72.8177L47.9193 71.1894C47.9316 71.1413 47.9214 71.0904 47.8921 71.0505C47.8624 71.0107 47.8164 70.9866 47.7669 70.9844L42.203 70.7593C42.1624 70.7605 42.115 70.774 42.0827 70.8051C42.0505 70.8358 42.0322 70.8788 42.0322 70.9233V72.9587C42.0322 73.0032 42.0503 73.0458 42.0824 73.0766C42.113 73.1065 42.1539 73.1229 42.1964 73.1229C42.1983 73.1229 42.2003 73.1229 42.2022 73.1229L43.3997 73.0805L43.0636 75.228L44.3649 75.6149L44.5268 73.5582C44.4919 74.2793 44.5993 76.9447 48.1982 76.2127C52.2221 75.3946 45.786 75.0044 46.1569 72.9833ZM42.3604 71.0944L47.5507 71.3046L47.2143 72.6172L42.3604 72.7888V71.0944Z" fill="#241726"/>
</g>
<defs>
<clipPath id="clip0_43_1239">
<rect width="80" height="80" fill="white" transform="translate(0.666504)"/>
</clipPath>
</defs>
</svg>
